<svg width="133" height="44" viewBox="0 0 133 44" fill="none" xmlns="http://www.w3.org/2000/svg">
<rect x="1.25" y="0.5" width="131" height="43" rx="6.5" fill="black"/>
<path d="M90.4284 21.1211V23.6413H88.8487V25.2939H90.4284V30.9094C90.4284 32.8269 91.2958 33.5939 93.4781 33.5939C93.8616 33.5939 94.2268 33.5482 94.5464 33.4935V31.859C94.2724 31.8864 94.099 31.9047 93.7976 31.9047C92.8206 31.9047 92.3915 31.4481 92.3915 30.4072V25.2939H94.5464V23.6413H92.3915V21.1211H90.4284Z" fill="white"/>
<path d="M100.106 33.7309C103.009 33.7309 104.79 31.786 104.79 28.5628C104.79 25.3579 103 23.4039 100.106 23.4039C97.202 23.4039 95.4123 25.3579 95.4123 28.5628C95.4123 31.786 97.1929 33.7309 100.106 33.7309ZM100.106 31.9869C98.3981 31.9869 97.4394 30.7359 97.4394 28.5628C97.4394 26.4079 98.3981 25.1479 100.106 25.1479C101.804 25.1479 102.772 26.4079 102.772 28.5628C102.772 30.7268 101.804 31.9869 100.106 31.9869Z" fill="white"/>
<path d="M106.313 33.5391H108.276V27.668C108.276 26.2709 109.326 25.3305 110.815 25.3305C111.162 25.3305 111.746 25.3944 111.91 25.4492V23.5134C111.7 23.4586 111.326 23.4312 111.034 23.4312C109.737 23.4312 108.632 24.1435 108.349 25.1205H108.203V23.5956H106.313V33.5391Z" fill="white"/>
<path d="M116.785 25.0748C118.237 25.0748 119.186 26.0883 119.232 27.6497H114.21C114.319 26.0975 115.333 25.0748 116.785 25.0748ZM119.223 30.8546C118.857 31.6308 118.045 32.0599 116.858 32.0599C115.287 32.0599 114.274 30.9551 114.21 29.2111V29.1015H121.231V28.4167C121.231 25.2939 119.561 23.4039 116.794 23.4039C113.991 23.4039 112.21 25.4218 112.21 28.5993C112.21 31.7769 113.954 33.7309 116.803 33.7309C119.077 33.7309 120.665 32.6352 121.113 30.8546H119.223Z" fill="white"/>
<path d="M77.5544 29.8671C77.7058 32.3088 79.7406 33.8703 82.769 33.8703C86.0056 33.8703 88.0309 32.2331 88.0309 29.6211C88.0309 27.5674 86.8763 26.4317 84.075 25.7787L82.5703 25.4096C80.791 24.9932 80.0718 24.4349 80.0718 23.4601C80.0718 22.2298 81.1885 21.4254 82.8636 21.4254C84.4536 21.4254 85.5514 22.2109 85.7501 23.4696H87.8132C87.6902 21.1698 85.6649 19.5515 82.892 19.5515C79.9109 19.5515 77.9235 21.1698 77.9235 23.602C77.9235 25.6084 79.0497 26.8008 81.5198 27.3781L83.28 27.804C85.0876 28.2299 85.8826 28.8545 85.8826 29.8955C85.8826 31.1069 84.6334 31.987 82.9299 31.987C81.1034 31.987 79.8352 31.1637 79.6554 29.8671H77.5544Z" fill="white"/>
<path d="M57.2183 23.4312C55.867 23.4312 54.6982 24.1069 54.0956 25.2392H53.9495V23.5956H52.0594V36.8445H54.0225V32.0325H54.1778C54.6982 33.0826 55.8213 33.7035 57.2366 33.7035C59.7476 33.7035 61.3455 31.7221 61.3455 28.5628C61.3455 25.4035 59.7476 23.4312 57.2183 23.4312ZM56.6614 31.9412C55.0178 31.9412 53.986 30.6446 53.986 28.5719C53.986 26.4901 55.0178 25.1935 56.6705 25.1935C58.3323 25.1935 59.3276 26.4627 59.3276 28.5628C59.3276 30.672 58.3323 31.9412 56.6614 31.9412Z" fill="white"/>
<path d="M68.2148 23.4312C66.8634 23.4312 65.6947 24.1069 65.0921 25.2392H64.946V23.5956H63.0559V36.8445H65.019V32.0325H65.1742C65.6947 33.0826 66.8178 33.7035 68.2331 33.7035C70.7441 33.7035 72.342 31.7221 72.342 28.5628C72.342 25.4035 70.7441 23.4312 68.2148 23.4312ZM67.6578 31.9412C66.0143 31.9412 64.9825 30.6446 64.9825 28.5719C64.9825 26.4901 66.0143 25.1935 67.667 25.1935C69.3288 25.1935 70.324 26.4627 70.324 28.5628C70.324 30.672 69.3288 31.9412 67.6578 31.9412Z" fill="white"/>
<path d="M48.5372 33.5391H50.7896L45.8589 19.8827H43.5781L38.6475 33.5391H40.8242L42.0828 29.9144H47.288L48.5372 33.5391ZM44.6097 22.3623H44.7706L46.7485 28.1352H42.6223L44.6097 22.3623Z" fill="white"/>
<path d="M39.9663 9.58196V16.1699H42.3449C44.308 16.1699 45.4448 14.96 45.4448 12.8554C45.4448 10.7827 44.2989 9.58196 42.3449 9.58196H39.9663ZM40.989 10.5133H42.2308C43.5958 10.5133 44.4039 11.3807 44.4039 12.8691C44.4039 14.3802 43.6095 15.2385 42.2308 15.2385H40.989V10.5133Z" fill="white"/>
<path d="M48.9264 16.2657C50.3782 16.2657 51.2685 15.2933 51.2685 13.6817C51.2685 12.0792 50.3737 11.1022 48.9264 11.1022C47.4746 11.1022 46.5798 12.0792 46.5798 13.6817C46.5798 15.2933 47.47 16.2657 48.9264 16.2657ZM48.9264 15.3937C48.0727 15.3937 47.5933 14.7683 47.5933 13.6817C47.5933 12.6043 48.0727 11.9742 48.9264 11.9742C49.7756 11.9742 50.2595 12.6043 50.2595 13.6817C50.2595 14.7637 49.7756 15.3937 48.9264 15.3937Z" fill="white"/>
<path d="M58.8498 11.1981H57.8683L56.9826 14.992H56.905L55.8823 11.1981H54.9418L53.9192 14.992H53.8461L52.9559 11.1981H51.9606L53.3302 16.1699H54.3392L55.3619 12.5084H55.4395L56.4667 16.1699H57.4848L58.8498 11.1981Z" fill="white"/>
<path d="M59.9802 16.1699H60.9618V13.2617C60.9618 12.4856 61.4229 12.0016 62.1488 12.0016C62.8747 12.0016 63.2217 12.3988 63.2217 13.1978V16.1699H64.2033V12.9512C64.2033 11.7688 63.5915 11.1022 62.4821 11.1022C61.7334 11.1022 61.2403 11.4355 60.9983 11.9879H60.9253V11.1981H59.9802V16.1699Z" fill="white"/>
<path d="M65.7491 16.1699H66.7307V9.25781H65.7491V16.1699Z" fill="white"/>
<path d="M70.4223 16.2657C71.8741 16.2657 72.7644 15.2933 72.7644 13.6817C72.7644 12.0792 71.8695 11.1022 70.4223 11.1022C68.9705 11.1022 68.0757 12.0792 68.0757 13.6817C68.0757 15.2933 68.9659 16.2657 70.4223 16.2657ZM70.4223 15.3937C69.5686 15.3937 69.0892 14.7683 69.0892 13.6817C69.0892 12.6043 69.5686 11.9742 70.4223 11.9742C71.2715 11.9742 71.7554 12.6043 71.7554 13.6817C71.7554 14.7637 71.2715 15.3937 70.4223 15.3937Z" fill="white"/>
<path d="M75.689 15.4257C75.1548 15.4257 74.7668 15.1655 74.7668 14.7181C74.7668 14.2798 75.0772 14.0469 75.762 14.0013L76.9764 13.9237V14.3391C76.9764 14.9555 76.4286 15.4257 75.689 15.4257ZM75.4379 16.2521C76.0907 16.2521 76.634 15.969 76.9308 15.4714H77.0084V16.1699H77.9534V12.7732C77.9534 11.7231 77.2503 11.1022 76.004 11.1022C74.8763 11.1022 74.0728 11.6501 73.9724 12.5038H74.922C75.0316 12.1523 75.4105 11.9514 75.9583 11.9514C76.6294 11.9514 76.9764 12.2482 76.9764 12.7732V13.2023L75.6296 13.28C74.4472 13.353 73.7806 13.8689 73.7806 14.7637C73.7806 15.6722 74.4791 16.2521 75.4379 16.2521Z" fill="white"/>
<path d="M81.2844 16.2521C81.9692 16.2521 82.549 15.9279 82.8457 15.3846H82.9234V16.1699H83.8638V9.25781H82.8823V11.9879H82.8092C82.5399 11.4401 81.9646 11.1159 81.2844 11.1159C80.0289 11.1159 79.2208 12.1112 79.2208 13.6817C79.2208 15.2568 80.0197 16.2521 81.2844 16.2521ZM81.5629 11.9971C82.3846 11.9971 82.9005 12.6499 82.9005 13.6863C82.9005 14.7272 82.3892 15.3709 81.5629 15.3709C80.7319 15.3709 80.2343 14.7363 80.2343 13.6817C80.2343 12.6362 80.7365 11.9971 81.5629 11.9971Z" fill="white"/>
<path d="M90.229 16.2657C91.6808 16.2657 92.571 15.2933 92.571 13.6817C92.571 12.0792 91.6762 11.1022 90.229 11.1022C88.7771 11.1022 87.8823 12.0792 87.8823 13.6817C87.8823 15.2933 88.7726 16.2657 90.229 16.2657ZM90.229 15.3937C89.3752 15.3937 88.8959 14.7683 88.8959 13.6817C88.8959 12.6043 89.3752 11.9742 90.229 11.9742C91.0781 11.9742 91.5621 12.6043 91.5621 13.6817C91.5621 14.7637 91.0781 15.3937 90.229 15.3937Z" fill="white"/>
<path d="M93.8703 16.1699H94.8519V13.2617C94.8519 12.4856 95.313 12.0016 96.0389 12.0016C96.7648 12.0016 97.1118 12.3988 97.1118 13.1978V16.1699H98.0934V12.9512C98.0934 11.7688 97.4816 11.1022 96.3722 11.1022C95.6235 11.1022 95.1304 11.4355 94.8884 11.9879H94.8154V11.1981H93.8703V16.1699Z" fill="white"/>
<path d="M102.614 9.96089V11.2209H101.824V12.0473H102.614V14.855C102.614 15.8138 103.048 16.1973 104.139 16.1973C104.331 16.1973 104.513 16.1744 104.673 16.147V15.3298C104.536 15.3435 104.449 15.3527 104.299 15.3527C103.81 15.3527 103.596 15.1244 103.596 14.6039V12.0473H104.673V11.2209H103.596V9.96089H102.614Z" fill="white"/>
<path d="M105.991 16.1699H106.972V13.2663C106.972 12.513 107.42 12.0062 108.223 12.0062C108.917 12.0062 109.287 12.408 109.287 13.2023V16.1699H110.268V12.9604C110.268 11.7779 109.616 11.1068 108.556 11.1068C107.808 11.1068 107.283 11.4401 107.041 11.9971H106.963V9.25781H105.991V16.1699Z" fill="white"/>
<path d="M113.809 11.9377C114.535 11.9377 115.01 12.4445 115.033 13.2252H112.522C112.577 12.449 113.083 11.9377 113.809 11.9377ZM115.028 14.8276C114.846 15.2157 114.439 15.4303 113.846 15.4303C113.061 15.4303 112.554 14.8779 112.522 14.0059V13.9511H116.033V13.6087C116.033 12.0473 115.197 11.1022 113.814 11.1022C112.412 11.1022 111.522 12.1112 111.522 13.7C111.522 15.2887 112.394 16.2657 113.819 16.2657C114.955 16.2657 115.75 15.7179 115.973 14.8276H115.028Z" fill="white"/>
<path d="M27.9958 22.3309C28.0196 20.4818 29.0127 18.7322 30.588 17.7637C29.5942 16.3443 27.9296 15.4444 26.1977 15.3902C24.3506 15.1963 22.5598 16.4955 21.6185 16.4955C20.659 16.4955 19.2098 15.4095 17.6492 15.4416C15.615 15.5073 13.7187 16.6638 12.729 18.4422C10.6016 22.1255 12.1884 27.5386 14.2263 30.5159C15.2459 31.9738 16.4375 33.6023 17.9967 33.5445C19.5225 33.4813 20.0923 32.5716 21.934 32.5716C23.7587 32.5716 24.2933 33.5445 25.8841 33.5078C27.5214 33.4813 28.5529 32.0435 29.5367 30.5718C30.2693 29.533 30.833 28.3849 31.207 27.17C29.2829 26.3562 27.998 24.42 27.9958 22.3309Z" fill="white"/>
<path d="M24.991 13.4322C25.8836 12.3606 26.3234 10.9832 26.2169 9.59253C24.8531 9.73577 23.5933 10.3876 22.6886 11.4181C21.8039 12.425 21.3435 13.7781 21.4305 15.1156C22.7948 15.1297 24.136 14.4955 24.991 13.4322Z" fill="white"/>
<rect x="1.25" y="0.5" width="131" height="43" rx="6.5" stroke="#A6A6A6"/>
</svg>
