<svg width="91" height="30" viewBox="0 0 91 30" fill="none" xmlns="http://www.w3.org/2000/svg">
<rect x="1.25" y="0.5" width="89" height="29" rx="6.5" fill="black"/>
<path d="M61.8945 14.4008V16.119H60.8175V17.2459H61.8945V21.0746C61.8945 22.382 62.4859 22.9049 63.9739 22.9049C64.2353 22.9049 64.4844 22.8738 64.7022 22.8364V21.7221C64.5155 21.7407 64.3972 21.7532 64.1917 21.7532C63.5256 21.7532 63.233 21.4419 63.233 20.7322V17.2459H64.7022V16.119H63.233V14.4008H61.8945Z" fill="white"/>
<path d="M68.4926 22.9983C70.4724 22.9983 71.6864 21.6723 71.6864 19.4746C71.6864 17.2894 70.4661 15.9572 68.4926 15.9572C66.5129 15.9572 65.2927 17.2894 65.2927 19.4746C65.2927 21.6723 66.5067 22.9983 68.4926 22.9983ZM68.4926 21.8092C67.3284 21.8092 66.6748 20.9563 66.6748 19.4746C66.6748 18.0054 67.3284 17.1463 68.4926 17.1463C69.6506 17.1463 70.3105 18.0054 70.3105 19.4746C70.3105 20.9501 69.6506 21.8092 68.4926 21.8092Z" fill="white"/>
<path d="M72.725 22.8676H74.0635V18.8645C74.0635 17.912 74.7795 17.2708 75.7942 17.2708C76.0308 17.2708 76.4293 17.3143 76.5413 17.3517V16.0319C76.3981 15.9945 76.1429 15.9758 75.9437 15.9758C75.0596 15.9758 74.3063 16.4614 74.1133 17.1276H74.0137V16.0879H72.725V22.8676Z" fill="white"/>
<path d="M79.8648 17.0964C80.8547 17.0964 81.5021 17.7875 81.5332 18.8521H78.1092C78.1839 17.7937 78.8749 17.0964 79.8648 17.0964ZM81.527 21.0372C81.278 21.5664 80.7239 21.859 79.9146 21.859C78.8438 21.859 78.1527 21.1057 78.1092 19.9166V19.8419H82.8966V19.375C82.8966 17.2459 81.7574 15.9572 79.871 15.9572C77.9598 15.9572 76.7458 17.333 76.7458 19.4995C76.7458 21.666 77.9349 22.9983 79.8772 22.9983C81.4274 22.9983 82.5107 22.2512 82.8157 21.0372H81.527Z" fill="white"/>
<path d="M53.1168 20.3639C53.2201 22.0287 54.6074 23.0934 56.6722 23.0934C58.879 23.0934 60.2599 21.9771 60.2599 20.1962C60.2599 18.7959 59.4727 18.0216 57.5627 17.5764L56.5367 17.3247C55.3236 17.0408 54.8332 16.6601 54.8332 15.9955C54.8332 15.1567 55.5946 14.6082 56.7367 14.6082C57.8208 14.6082 58.5693 15.1438 58.7048 16.002H60.1115C60.0276 14.434 58.6467 13.3306 56.7561 13.3306C54.7235 13.3306 53.3685 14.434 53.3685 16.0923C53.3685 17.4603 54.1363 18.2733 55.8205 18.6669L57.0207 18.9573C58.2531 19.2476 58.7951 19.6735 58.7951 20.3833C58.7951 21.2092 57.9434 21.8093 56.7819 21.8093C55.5366 21.8093 54.6719 21.248 54.5493 20.3639H53.1168Z" fill="white"/>
<path d="M39.2513 15.9758C38.3299 15.9758 37.5331 16.4365 37.1222 17.2085H37.0226V16.0879H35.7339V25.1212H37.0724V21.8403H37.1782C37.5331 22.5563 38.2988 22.9796 39.2638 22.9796C40.9758 22.9796 42.0653 21.6287 42.0653 19.4746C42.0653 17.3206 40.9758 15.9758 39.2513 15.9758ZM38.8716 21.7781C37.751 21.7781 37.0475 20.8941 37.0475 19.4808C37.0475 18.0614 37.751 17.1774 38.8778 17.1774C40.0108 17.1774 40.6894 18.0427 40.6894 19.4746C40.6894 20.9127 40.0108 21.7781 38.8716 21.7781Z" fill="white"/>
<path d="M46.7489 15.9758C45.8275 15.9758 45.0307 16.4365 44.6198 17.2085H44.5202V16.0879H43.2315V25.1212H44.57V21.8403H44.6758C45.0307 22.5563 45.7964 22.9796 46.7614 22.9796C48.4734 22.9796 49.5629 21.6287 49.5629 19.4746C49.5629 17.3206 48.4734 15.9758 46.7489 15.9758ZM46.3692 21.7781C45.2486 21.7781 44.5451 20.8941 44.5451 19.4808C44.5451 18.0614 45.2486 17.1774 46.3754 17.1774C47.5084 17.1774 48.187 18.0427 48.187 19.4746C48.187 20.9127 47.5084 21.7781 46.3692 21.7781Z" fill="white"/>
<path d="M33.3324 22.8676H34.8681L31.5063 13.5564H29.9512L26.5894 22.8676H28.0735L28.9317 20.3962H32.4806L33.3324 22.8676ZM30.6545 15.247H30.7642L32.1128 19.1831H29.2995L30.6545 15.247Z" fill="white"/>
<path d="M27.4883 6.53326V11.025H29.11C30.4485 11.025 31.2236 10.2001 31.2236 8.76514C31.2236 7.35193 30.4423 6.53326 29.11 6.53326H27.4883ZM28.1855 7.16827H29.0322C29.963 7.16827 30.5139 7.7597 30.5139 8.77447C30.5139 9.80481 29.9723 10.39 29.0322 10.39H28.1855V7.16827Z" fill="white"/>
<path d="M33.5974 11.0904C34.5873 11.0904 35.1943 10.4274 35.1943 9.32855C35.1943 8.23596 34.5842 7.56982 33.5974 7.56982C32.6076 7.56982 31.9975 8.23596 31.9975 9.32855C31.9975 10.4274 32.6045 11.0904 33.5974 11.0904ZM33.5974 10.4958C33.0154 10.4958 32.6885 10.0694 32.6885 9.32855C32.6885 8.59393 33.0154 8.16437 33.5974 8.16437C34.1764 8.16437 34.5064 8.59393 34.5064 9.32855C34.5064 10.0663 34.1764 10.4958 33.5974 10.4958Z" fill="white"/>
<path d="M40.3634 7.63519H39.6942L39.0903 10.2219H39.0374L38.3401 7.63519H37.6989L37.0016 10.2219H36.9518L36.3448 7.63519H35.6662L36.6 11.025H37.288L37.9852 8.52856H38.0382L38.7385 11.025H39.4327L40.3634 7.63519Z" fill="white"/>
<path d="M41.1341 11.025H41.8034V9.04218C41.8034 8.513 42.1178 8.18304 42.6127 8.18304C43.1077 8.18304 43.3442 8.45386 43.3442 8.9986V11.025H44.0135V8.83051C44.0135 8.02429 43.5964 7.56982 42.84 7.56982C42.3295 7.56982 41.9933 7.79706 41.8283 8.17371H41.7785V7.63519H41.1341V11.025Z" fill="white"/>
<path d="M45.0675 11.025H45.7367V6.31226H45.0675V11.025Z" fill="white"/>
<path d="M48.2537 11.0904C49.2436 11.0904 49.8506 10.4274 49.8506 9.32855C49.8506 8.23596 49.2405 7.56982 48.2537 7.56982C47.2639 7.56982 46.6537 8.23596 46.6537 9.32855C46.6537 10.4274 47.2607 11.0904 48.2537 11.0904ZM48.2537 10.4958C47.6716 10.4958 47.3448 10.0694 47.3448 9.32855C47.3448 8.59393 47.6716 8.16437 48.2537 8.16437C48.8327 8.16437 49.1627 8.59393 49.1627 9.32855C49.1627 10.0663 48.8327 10.4958 48.2537 10.4958Z" fill="white"/>
<path d="M51.8446 10.5176C51.4804 10.5176 51.2159 10.3402 51.2159 10.0352C51.2159 9.73633 51.4275 9.57758 51.8944 9.54645L52.7224 9.49353V9.77679C52.7224 10.197 52.3489 10.5176 51.8446 10.5176ZM51.6734 11.0811C52.1186 11.0811 52.489 10.8881 52.6913 10.5488H52.7442V11.025H53.3886V8.70911C53.3886 7.99316 52.9092 7.56982 52.0594 7.56982C51.2906 7.56982 50.7427 7.94336 50.6742 8.52545H51.3217C51.3964 8.28577 51.6548 8.1488 52.0283 8.1488C52.4859 8.1488 52.7224 8.35114 52.7224 8.70911V9.00171L51.8042 9.05463C50.998 9.10443 50.5435 9.45618 50.5435 10.0663C50.5435 10.6857 51.0198 11.0811 51.6734 11.0811Z" fill="white"/>
<path d="M55.6597 11.0811C56.1266 11.0811 56.5219 10.86 56.7243 10.4896H56.7772V11.025H57.4184V6.31226H56.7492V8.17371H56.6994C56.5157 7.80017 56.1235 7.57916 55.6597 7.57916C54.8037 7.57916 54.2527 8.25775 54.2527 9.32855C54.2527 10.4025 54.7974 11.0811 55.6597 11.0811ZM55.8496 8.17993C56.4099 8.17993 56.7616 8.62506 56.7616 9.33166C56.7616 10.0414 56.413 10.4803 55.8496 10.4803C55.283 10.4803 54.9437 10.0476 54.9437 9.32855C54.9437 8.61572 55.2861 8.17993 55.8496 8.17993Z" fill="white"/>
<path d="M61.7583 11.0904C62.7481 11.0904 63.3551 10.4274 63.3551 9.32855C63.3551 8.23596 62.745 7.56982 61.7583 7.56982C60.7684 7.56982 60.1583 8.23596 60.1583 9.32855C60.1583 10.4274 60.7653 11.0904 61.7583 11.0904ZM61.7583 10.4958C61.1762 10.4958 60.8493 10.0694 60.8493 9.32855C60.8493 8.59393 61.1762 8.16437 61.7583 8.16437C62.3372 8.16437 62.6672 8.59393 62.6672 9.32855C62.6672 10.0663 62.3372 10.4958 61.7583 10.4958Z" fill="white"/>
<path d="M64.241 11.025H64.9103V9.04218C64.9103 8.513 65.2247 8.18304 65.7196 8.18304C66.2145 8.18304 66.4511 8.45386 66.4511 8.9986V11.025H67.1204V8.83051C67.1204 8.02429 66.7033 7.56982 65.9468 7.56982C65.4363 7.56982 65.1002 7.79706 64.9352 8.17371H64.8854V7.63519H64.241V11.025Z" fill="white"/>
<path d="M70.2027 6.79163V7.65076H69.6641V8.21417H70.2027V10.1285C70.2027 10.7822 70.4984 11.0437 71.2423 11.0437C71.3731 11.0437 71.4976 11.0281 71.6065 11.0095V10.4523C71.5131 10.4616 71.454 10.4678 71.3513 10.4678C71.0182 10.4678 70.8719 10.3122 70.8719 9.95734V8.21417H71.6065V7.65076H70.8719V6.79163H70.2027Z" fill="white"/>
<path d="M72.5049 11.025H73.1741V9.04529C73.1741 8.53168 73.4792 8.18616 74.027 8.18616C74.5002 8.18616 74.7523 8.46008 74.7523 9.00171V11.025H75.4216V8.83673C75.4216 8.03052 74.9764 7.57294 74.2543 7.57294C73.7438 7.57294 73.3858 7.80017 73.2208 8.17993H73.1679V6.31226H72.5049V11.025Z" fill="white"/>
<path d="M77.8358 8.13947C78.3308 8.13947 78.6545 8.48499 78.6701 9.01727H76.958C76.9954 8.4881 77.3409 8.13947 77.8358 8.13947ZM78.667 10.1099C78.5424 10.3745 78.2654 10.5208 77.8607 10.5208C77.3253 10.5208 76.9798 10.1441 76.958 9.54956V9.51221H79.3518V9.27875C79.3518 8.21417 78.7821 7.56982 77.839 7.56982C76.8833 7.56982 76.2763 8.25775 76.2763 9.341C76.2763 10.4243 76.8709 11.0904 77.8421 11.0904C78.6172 11.0904 79.1588 10.7169 79.3113 10.1099H78.667Z" fill="white"/>
<path d="M19.3267 15.2256C19.343 13.9648 20.0201 12.7719 21.0942 12.1115C20.4166 11.1438 19.2816 10.5302 18.1008 10.4932C16.8414 10.3611 15.6204 11.2469 14.9786 11.2469C14.3244 11.2469 13.3363 10.5064 12.2722 10.5283C10.8853 10.5731 9.59233 11.3616 8.91755 12.5742C7.46705 15.0855 8.549 18.7763 9.93845 20.8062C10.6336 21.8002 11.4461 22.9106 12.5092 22.8712C13.5495 22.8281 13.938 22.2078 15.1937 22.2078C16.4378 22.2078 16.8023 22.8712 17.887 22.8462C19.0033 22.828 19.7066 21.8477 20.3774 20.8443C20.8768 20.136 21.2612 19.3533 21.5162 18.5249C20.2043 17.9701 19.3283 16.6499 19.3267 15.2256Z" fill="white"/>
<path d="M17.278 9.15825C17.8866 8.42759 18.1865 7.48846 18.1139 6.54028C17.184 6.63795 16.3251 7.08237 15.7082 7.78499C15.105 8.47149 14.7911 9.3941 14.8504 10.306C15.7806 10.3156 16.6951 9.88324 17.278 9.15825Z" fill="white"/>
<rect x="1.25" y="0.5" width="89" height="29" rx="6.5" stroke="#A6A6A6"/>
</svg>
