<svg width="24" height="25" viewBox="0 0 24 25" fill="none" xmlns="http://www.w3.org/2000/svg">
<path d="M20.3672 11.6096L11.5125 3.92441C11.4445 3.86582 11.3578 3.83301 11.2664 3.83301H9.19219C9.01875 3.83301 8.93906 4.04863 9.07031 4.16113L17.2781 11.2861H3.5625C3.45937 11.2861 3.375 11.3705 3.375 11.4736V12.8799C3.375 12.983 3.45937 13.0674 3.5625 13.0674H17.2758L9.06797 20.1924C8.93672 20.3072 9.01641 20.5205 9.18984 20.5205H11.3344C11.3789 20.5205 11.4234 20.5041 11.4562 20.4736L20.3672 12.7439C20.4483 12.6734 20.5134 12.5862 20.558 12.4884C20.6025 12.3906 20.6256 12.2843 20.6256 12.1768C20.6256 12.0692 20.6025 11.963 20.558 11.8651C20.5134 11.7673 20.4483 11.6801 20.3672 11.6096Z" fill="#6DD19C"/>
</svg>
