<svg width="28" height="22" viewBox="0 0 28 22" fill="none" xmlns="http://www.w3.org/2000/svg">
<path d="M27 0.0312511H19.85C18.3156 0.0312511 16.8156 0.471876 15.525 1.30313L14 2.28125L12.475 1.30313C11.1857 0.472036 9.68398 0.0304309 8.15 0.0312511H1C0.446875 0.0312511 0 0.478126 0 1.03125V18.7812C0 19.3344 0.446875 19.7812 1 19.7812H8.15C9.68437 19.7812 11.1844 20.2219 12.475 21.0531L13.8625 21.9469C13.9031 21.9719 13.95 21.9875 13.9969 21.9875C14.0437 21.9875 14.0906 21.975 14.1313 21.9469L15.5187 21.0531C16.8125 20.2219 18.3156 19.7812 19.85 19.7812H27C27.5531 19.7812 28 19.3344 28 18.7812V1.03125C28 0.478126 27.5531 0.0312511 27 0.0312511ZM10.625 12.2969C10.625 12.425 10.525 12.5312 10.4031 12.5312H4.59688C4.475 12.5312 4.375 12.425 4.375 12.2969V10.8906C4.375 10.7625 4.475 10.6562 4.59688 10.6562H10.4C10.5219 10.6562 10.6219 10.7625 10.6219 10.8906V12.2969H10.625ZM10.625 7.92188C10.625 8.05 10.525 8.15625 10.4031 8.15625H4.59688C4.475 8.15625 4.375 8.05 4.375 7.92188V6.51563C4.375 6.3875 4.475 6.28125 4.59688 6.28125H10.4C10.5219 6.28125 10.6219 6.3875 10.6219 6.51563V7.92188H10.625ZM23.625 12.2969C23.625 12.425 23.525 12.5312 23.4031 12.5312H17.5969C17.475 12.5312 17.375 12.425 17.375 12.2969V10.8906C17.375 10.7625 17.475 10.6562 17.5969 10.6562H23.4C23.5219 10.6562 23.6219 10.7625 23.6219 10.8906V12.2969H23.625ZM23.625 7.92188C23.625 8.05 23.525 8.15625 23.4031 8.15625H17.5969C17.475 8.15625 17.375 8.05 17.375 7.92188V6.51563C17.375 6.3875 17.475 6.28125 17.5969 6.28125H23.4C23.5219 6.28125 23.6219 6.3875 23.6219 6.51563V7.92188H23.625Z" fill="#4C926D"/>
</svg>
