<svg width="24" height="25" viewBox="0 0 24 25" fill="none" xmlns="http://www.w3.org/2000/svg">
<path d="M12 1.67651C6.20156 1.67651 1.5 6.37808 1.5 12.1765C1.5 17.975 6.20156 22.6765 12 22.6765C17.7984 22.6765 22.5 17.975 22.5 12.1765C22.5 6.37808 17.7984 1.67651 12 1.67651ZM16.5352 8.74761L11.5992 15.5914C11.5302 15.6876 11.4393 15.7661 11.3339 15.8202C11.2286 15.8744 11.1118 15.9026 10.9934 15.9026C10.8749 15.9026 10.7582 15.8744 10.6528 15.8202C10.5474 15.7661 10.4565 15.6876 10.3875 15.5914L7.46484 11.5414C7.37578 11.4171 7.46484 11.2437 7.61719 11.2437H8.71641C8.95547 11.2437 9.18281 11.3585 9.32344 11.5554L10.9922 13.871L14.6766 8.76167C14.8172 8.56714 15.0422 8.44995 15.2836 8.44995H16.3828C16.5352 8.44995 16.6242 8.62339 16.5352 8.74761Z" fill="#6DD19C"/>
</svg>
