<svg width="24" height="25" viewBox="0 0 24 25" fill="none" xmlns="http://www.w3.org/2000/svg">
<path d="M16.3819 8.4502H15.2827C15.0436 8.4502 14.8163 8.56504 14.6757 8.76191L10.9913 13.8713L9.32252 11.5557C9.18189 11.3611 8.95689 11.2439 8.71549 11.2439H7.61626C7.46392 11.2439 7.37486 11.4174 7.46392 11.5416L10.3842 15.5916C10.4532 15.6879 10.5442 15.7663 10.6495 15.8205C10.7549 15.8746 10.8717 15.9028 10.9901 15.9028C11.1086 15.9028 11.2253 15.8746 11.3307 15.8205C11.436 15.7663 11.527 15.6879 11.596 15.5916L16.5319 8.74785C16.6233 8.62363 16.5343 8.4502 16.3819 8.4502Z" fill="white"/>
<path d="M12 1.67676C6.20156 1.67676 1.5 6.37832 1.5 12.1768C1.5 17.9752 6.20156 22.6768 12 22.6768C17.7984 22.6768 22.5 17.9752 22.5 12.1768C22.5 6.37832 17.7984 1.67676 12 1.67676ZM12 20.8955C7.18594 20.8955 3.28125 16.9908 3.28125 12.1768C3.28125 7.3627 7.18594 3.45801 12 3.45801C16.8141 3.45801 20.7188 7.3627 20.7188 12.1768C20.7188 16.9908 16.8141 20.8955 12 20.8955Z" fill="white"/>
</svg>
