<svg width="321" height="60" viewBox="0 0 321 60" fill="none" xmlns="http://www.w3.org/2000/svg">
<path fill-rule="evenodd" clip-rule="evenodd" d="M55.6371 26.7819V26.6956C55.6229 26.3457 55.6007 25.9951 55.573 25.6445C55.5441 25.2871 55.5083 24.9224 55.4652 24.565C55.3795 23.8497 55.2649 23.1417 55.1294 22.4338C55.0579 22.0838 54.9791 21.74 54.9002 21.3894C53.7418 16.5336 51.2964 12.0998 47.8774 8.53913C47.6346 8.28836 47.3845 8.0382 47.1343 7.79483C46.6266 7.30191 46.0974 6.82994 45.5539 6.37893C45.5465 6.37215 45.5391 6.36476 45.5324 6.35736C45.2674 6.14295 44.9957 5.92853 44.7246 5.72089C44.467 5.52126 44.2015 5.32779 43.9378 5.13494C43.6297 4.91312 43.3081 4.69809 42.9864 4.49107C42.6858 4.29144 42.3783 4.10536 42.0709 3.91867C41.7708 3.7406 41.456 3.56131 41.1417 3.39002C40.8263 3.21811 40.5046 3.04683 40.183 2.88909C39.8829 2.73876 39.5823 2.59581 39.2822 2.46026C39.2391 2.43869 39.1892 2.41713 39.1393 2.39556C38.8318 2.26001 38.5169 2.12384 38.1947 1.99507C37.8589 1.85952 37.5157 1.73075 37.1725 1.60937C36.0992 1.22304 34.9908 0.900801 33.854 0.658041V6.5151C34.3333 6.65126 34.8047 6.80099 35.2699 6.9655C43.8441 10.0191 49.9803 18.2144 49.9803 27.833C49.9803 40.0616 40.0616 49.9803 27.833 49.9803C15.597 49.9803 5.68515 40.0616 5.68515 27.833C5.68515 16.5958 14.0567 7.31547 24.9076 5.88355V17.9008L9.41343 38.4116H46.0253L34.1214 21.5792L30.3777 26.4202L34.7209 32.5619H21.1639L30.7579 19.8614L30.6932 0.142945C29.7486 0.0499076 28.7979 0 27.833 0C24.708 0 21.7116 0.515096 18.9076 1.46642C16.9698 2.12384 15.1319 2.98953 13.4085 4.03389C13.4085 4.03389 13.4011 4.02649 13.4011 4.03389C9.58226 6.36476 6.36476 9.58287 4.03266 13.4017C4.02526 13.4017 4.03266 13.4085 4.03266 13.4085C2.98891 15.1325 2.12384 16.9704 1.4658 18.9082C0.514479 21.7116 0 24.708 0 27.833C0 30.9581 0.514479 33.9544 1.4658 36.7572C3.43931 42.565 7.27973 47.5206 12.2711 50.9027H12.2785C12.6506 51.1466 13.0222 51.3894 13.4011 51.6254C13.7874 51.862 14.1805 52.09 14.5736 52.2976C14.9673 52.5126 15.3678 52.7123 15.7683 52.9131C15.976 53.0129 16.1762 53.1134 16.3906 53.199C16.7979 53.3845 17.2132 53.5564 17.6279 53.7277C20.7887 54.9723 24.2286 55.6593 27.833 55.6593C30.9575 55.6593 33.9544 55.1436 36.7572 54.1929C37.6155 53.8996 38.4523 53.5712 39.2748 53.199H39.2822C39.6901 53.0129 40.09 52.8127 40.4905 52.6124H40.4978C41.4917 52.0974 42.4572 51.5256 43.3795 50.9027C43.3869 50.91 43.3869 50.9027 43.3869 50.9027C46.3401 48.8934 48.8934 46.3475 50.9027 43.3869C50.9027 43.3869 50.91 43.3869 50.9027 43.3795C51.2748 42.8293 51.6322 42.2643 51.9686 41.6852V41.6778C52.1904 41.2914 52.4042 40.8983 52.6118 40.4978C52.8195 40.0974 53.0197 39.6901 53.1984 39.2748C53.3839 38.8675 53.5564 38.4529 53.7277 38.0382C54.9717 34.8768 55.658 31.4375 55.658 27.833C55.658 27.4824 55.6513 27.1325 55.6371 26.7819Z" fill="#6DD09C"/>
<path fill-rule="evenodd" clip-rule="evenodd" d="M146.424 15.6919L133.809 48.7658L129.541 60H121.697L126.215 48.7658H123.705L112.032 15.6919H120.253L128.788 42.3647L138.139 15.6919H146.424Z" fill="black"/>
<path fill-rule="evenodd" clip-rule="evenodd" d="M180.188 27.0508C180.188 17.7631 174.414 12.3028 166.129 12.3028H157.846V41.6109H166.129C174.414 41.6109 180.188 36.2141 180.188 27.0508ZM188.346 26.9258C188.346 40.1685 179.246 48.7662 166.381 48.7662H149.812V5.14819H166.381C179.246 5.14819 188.346 13.6836 188.346 26.9258Z" fill="black"/>
<path fill-rule="evenodd" clip-rule="evenodd" d="M244.89 15.6919L232.275 48.7658L228.008 60H220.163L224.682 48.7658H222.171L210.499 15.6919H218.72L227.255 42.3647L236.606 15.6919H244.89Z" fill="black"/>
<path fill-rule="evenodd" clip-rule="evenodd" d="M277.713 35.837C277.713 43.6189 271.061 49.5185 261.584 49.5185C253.236 49.5185 246.898 45.439 245.141 39.5394L252.483 36.6528C253.551 40.2301 256.877 42.6781 261.396 42.6781C266.291 42.6781 269.429 39.5394 269.429 35.272C269.429 30.8167 265.915 28.118 261.709 28.118H255.056V22.7834L266.856 11.4865H247.275V5.14819H275.83V11.4236L264.47 22.7834C272.127 23.0342 277.713 28.4316 277.713 35.837Z" fill="black"/>
<path fill-rule="evenodd" clip-rule="evenodd" d="M311.979 26.9888C311.979 17.4496 307.586 12.0522 300.934 12.0522C294.28 12.0522 289.888 17.3868 289.888 26.9888C289.888 36.5901 294.28 41.9253 300.934 41.9253C307.586 41.9253 311.979 36.5279 311.979 26.9888ZM281.729 26.9259C281.729 12.6166 289.26 4.45825 300.934 4.45825C312.669 4.45825 320.138 12.6794 320.138 26.9259C320.138 40.921 312.607 49.5193 300.934 49.5193C289.26 49.5193 281.729 40.921 281.729 26.9259Z" fill="black"/>
<path fill-rule="evenodd" clip-rule="evenodd" d="M100.599 5.14795L99.64 5.2108L86.8649 37.6575L74.0904 5.2108L73.1317 5.14795H63.2678V48.7659H70.7361V16.5706L83.5389 47.1966H86.8649H90.1914L102.994 16.5706V48.7659H110.462V5.14795H100.599Z" fill="black"/>
<path fill-rule="evenodd" clip-rule="evenodd" d="M209.146 15.6919H199.229H195.339C193.329 15.6919 191.699 17.3216 191.699 19.3321V23.3937V48.7658H199.669V29.9384V23.3937H209.146V15.6919Z" fill="black"/>
</svg>
