<svg width="102" height="30" viewBox="0 0 102 30" fill="none" xmlns="http://www.w3.org/2000/svg">
<rect x="1.25" y="0.5" width="100.25" height="29" rx="4.5" fill="black"/>
<path d="M51.852 16.3134C50.088 16.3134 48.6502 17.6552 48.6502 19.5032C48.6502 21.3399 50.088 22.6929 51.852 22.6929C53.6167 22.6929 55.0545 21.3399 55.0545 19.5032C55.0537 17.6552 53.616 16.3134 51.852 16.3134ZM51.852 21.4374C50.8852 21.4374 50.052 20.6402 50.052 19.5039C50.052 18.3557 50.886 17.5704 51.852 17.5704C52.8187 17.5704 53.652 18.3557 53.652 19.5039C53.652 20.6394 52.8187 21.4374 51.852 21.4374ZM44.8665 16.3134C43.1025 16.3134 41.6647 17.6552 41.6647 19.5032C41.6647 21.3399 43.1025 22.6929 44.8665 22.6929C46.6312 22.6929 48.069 21.3399 48.069 19.5032C48.069 17.6552 46.6312 16.3134 44.8665 16.3134ZM44.8665 21.4374C43.8997 21.4374 43.0665 20.6402 43.0665 19.5039C43.0665 18.3557 43.9005 17.5704 44.8665 17.5704C45.8332 17.5704 46.6665 18.3557 46.6665 19.5039C46.6672 20.6394 45.8332 21.4374 44.8665 21.4374ZM36.558 17.2929V18.6459H39.7965C39.6997 19.4072 39.4462 19.9629 39.0592 20.3492C38.5882 20.8202 37.851 21.3399 36.558 21.3399C34.5645 21.3399 33.006 19.7327 33.006 17.7392C33.006 15.7457 34.5645 14.1384 36.558 14.1384C37.6335 14.1384 38.4187 14.5614 38.9985 15.1051L39.9532 14.1504C39.1432 13.3772 38.0685 12.7854 36.558 12.7854C33.8272 12.7854 31.5315 15.0084 31.5315 17.7392C31.5315 20.4699 33.8272 22.6929 36.558 22.6929C38.0317 22.6929 39.144 22.2092 40.0132 21.3032C40.9072 20.4092 41.1855 19.1521 41.1855 18.1374C41.1855 17.8239 41.1615 17.5337 41.1127 17.2922H36.558V17.2929ZM70.539 18.3437C70.2735 17.6312 69.4635 16.3134 67.8082 16.3134C66.165 16.3134 64.7992 17.6064 64.7992 19.5032C64.7992 21.2912 66.153 22.6929 67.965 22.6929C69.4267 22.6929 70.2727 21.7989 70.6237 21.2792L69.5362 20.5539C69.174 21.0856 68.6782 21.4359 67.965 21.4359C67.2525 21.4359 66.7447 21.1097 66.4185 20.4692L70.6837 18.7051L70.539 18.3437ZM66.189 19.4072C66.153 18.1741 67.1437 17.5464 67.857 17.5464C68.4127 17.5464 68.8837 17.8247 69.0412 18.2229L66.189 19.4072ZM62.7217 22.5002H64.1227V13.1244H62.7217V22.5002ZM60.4252 17.0267H60.3772C60.063 16.6517 59.4585 16.3134 58.698 16.3134C57.1027 16.3134 55.641 17.7152 55.641 19.5159C55.641 21.3039 57.1027 22.6937 58.698 22.6937C59.4592 22.6937 60.063 22.3554 60.3772 21.9692H60.4252V22.4282C60.4252 23.6484 59.7727 24.3009 58.722 24.3009C57.864 24.3009 57.3322 23.6852 57.1147 23.1654L55.8945 23.6732C56.2447 24.5184 57.1747 25.5579 58.722 25.5579C60.3652 25.5579 61.755 24.5912 61.755 22.2347V16.5076H60.426V17.0267H60.4252ZM58.8187 21.4374C57.852 21.4374 57.0427 20.6274 57.0427 19.5159C57.0427 18.3917 57.852 17.5704 58.8187 17.5704C59.7727 17.5704 60.522 18.3917 60.522 19.5159C60.522 20.6274 59.7727 21.4374 58.8187 21.4374ZM77.1045 13.1244H73.7512V22.5002H75.15V18.9482H77.1037C78.6547 18.9482 80.1802 17.8254 80.1802 16.0367C80.1802 14.2479 78.6555 13.1244 77.1045 13.1244ZM77.1405 17.6431H75.15V14.4294H77.1405C78.1867 14.4294 78.7807 15.2957 78.7807 16.0367C78.7807 16.7627 78.1867 17.6431 77.1405 17.6431ZM85.7895 16.2969C84.7762 16.2969 83.727 16.7432 83.2927 17.7324L84.5347 18.2507C84.8002 17.7324 85.2952 17.5629 85.8135 17.5629C86.5372 17.5629 87.273 17.9972 87.285 18.7689V18.8657C87.0315 18.7209 86.4885 18.5042 85.8255 18.5042C84.4867 18.5042 83.1232 19.2399 83.1232 20.6147C83.1232 21.8694 84.2212 22.6772 85.4512 22.6772C86.3917 22.6772 86.9107 22.2549 87.2362 21.7599H87.2842V22.4837H88.6357V18.8889C88.6365 17.2254 87.393 16.2969 85.7895 16.2969ZM85.62 21.4352C85.1625 21.4352 84.5227 21.2057 84.5227 20.6387C84.5227 19.9149 85.3192 19.6374 86.007 19.6374C86.6212 19.6374 86.9115 19.7702 87.285 19.9509C87.1762 20.8202 86.4285 21.4352 85.62 21.4352ZM93.5572 16.5016L91.953 20.5667H91.905L90.24 16.5016H88.7325L91.2292 22.1829L89.8057 25.3434H91.2652L95.1135 16.5016H93.5572ZM80.9527 22.5002H82.3515V13.1244H80.9527V22.5002Z" fill="white"/>
<path d="M36.3137 7.68215C36.3137 8.31065 36.1277 8.8109 35.7549 9.1844C35.3319 9.6284 34.7799 9.8504 34.1019 9.8504C33.4524 9.8504 32.8997 9.6254 32.4459 9.1754C31.9914 8.72465 31.7642 8.16665 31.7642 7.50065C31.7642 6.8339 31.9914 6.2759 32.4459 5.8259C32.8997 5.37515 33.4524 5.15015 34.1019 5.15015C34.4244 5.15015 34.7327 5.21315 35.0252 5.3384C35.3184 5.4644 35.5532 5.63165 35.7287 5.8409L35.3334 6.2369C35.0357 5.88065 34.6254 5.7029 34.1012 5.7029C33.6272 5.7029 33.2177 5.8694 32.8719 6.2024C32.5262 6.5354 32.3537 6.96815 32.3537 7.4999C32.3537 8.03165 32.5262 8.4644 32.8719 8.7974C33.2177 9.1304 33.6272 9.2969 34.1012 9.2969C34.6037 9.2969 35.0229 9.12965 35.3582 8.7944C35.5757 8.57615 35.7017 8.2724 35.7354 7.88315H34.1012V7.3424H36.2814C36.3039 7.46015 36.3137 7.5734 36.3137 7.68215Z" fill="white"/>
<path d="M39.7712 5.80269H37.7222V7.22919H39.5702V7.76994H37.7222V9.19644H39.7712V9.74994H37.144V5.24994H39.7712V5.80269Z" fill="white"/>
<path d="M42.2094 9.74994H41.6311V5.80269H40.3741V5.24994H43.4664V5.80269H42.2094V9.74994Z" fill="white"/>
<path d="M45.7036 9.74994V5.24994H46.2819V9.74994H45.7036Z" fill="white"/>
<path d="M48.8462 9.74994H48.268V5.80269H47.011V5.24994H50.1032V5.80269H48.8462V9.74994Z" fill="white"/>
<path d="M55.9568 9.16868C55.5143 9.62318 54.9646 9.85043 54.3068 9.85043C53.6491 9.85043 53.0993 9.62318 52.6576 9.16868C52.2151 8.71418 51.9946 8.15768 51.9946 7.49993C51.9946 6.84218 52.2151 6.28568 52.6576 5.83118C53.0993 5.37668 53.6491 5.14868 54.3068 5.14868C54.9608 5.14868 55.5098 5.37743 55.9538 5.83418C56.3978 6.29093 56.6198 6.84593 56.6198 7.49993C56.6198 8.15768 56.3986 8.71418 55.9568 9.16868ZM53.0843 8.79143C53.4173 9.12893 53.8246 9.29693 54.3068 9.29693C54.7891 9.29693 55.1971 9.12818 55.5293 8.79143C55.8623 8.45393 56.0296 8.02343 56.0296 7.49993C56.0296 6.97643 55.8623 6.54593 55.5293 6.20843C55.1971 5.87093 54.7891 5.70293 54.3068 5.70293C53.8246 5.70293 53.4173 5.87168 53.0843 6.20843C52.7521 6.54593 52.5848 6.97643 52.5848 7.49993C52.5848 8.02343 52.7521 8.45393 53.0843 8.79143Z" fill="white"/>
<path d="M57.4313 9.74994V5.24994H58.1348L60.3218 8.75019H60.3466L60.3218 7.88319V5.24994H60.9001V9.74994H60.2963L58.0081 6.07944H57.9833L58.0081 6.94644V9.74994H57.4313Z" fill="white"/>
<path d="M36.3137 7.68215C36.3137 8.31065 36.1277 8.8109 35.7549 9.1844C35.3319 9.6284 34.7799 9.8504 34.1019 9.8504C33.4524 9.8504 32.8997 9.6254 32.4459 9.1754C31.9914 8.72465 31.7642 8.16665 31.7642 7.50065C31.7642 6.8339 31.9914 6.2759 32.4459 5.8259C32.8997 5.37515 33.4524 5.15015 34.1019 5.15015C34.4244 5.15015 34.7327 5.21315 35.0252 5.3384C35.3184 5.4644 35.5532 5.63165 35.7287 5.8409L35.3334 6.2369C35.0357 5.88065 34.6254 5.7029 34.1012 5.7029C33.6272 5.7029 33.2177 5.8694 32.8719 6.2024C32.5262 6.5354 32.3537 6.96815 32.3537 7.4999C32.3537 8.03165 32.5262 8.4644 32.8719 8.7974C33.2177 9.1304 33.6272 9.2969 34.1012 9.2969C34.6037 9.2969 35.0229 9.12965 35.3582 8.7944C35.5757 8.57615 35.7017 8.2724 35.7354 7.88315H34.1012V7.3424H36.2814C36.3039 7.46015 36.3137 7.5734 36.3137 7.68215Z" stroke="white" strokeWidth="0.2" stroke-miterlimit="10"/>
<path d="M39.7712 5.80269H37.7222V7.22919H39.5702V7.76994H37.7222V9.19644H39.7712V9.74994H37.144V5.24994H39.7712V5.80269Z" stroke="white" strokeWidth="0.2" stroke-miterlimit="10"/>
<path d="M42.2094 9.74994H41.6311V5.80269H40.3741V5.24994H43.4664V5.80269H42.2094V9.74994Z" stroke="white" strokeWidth="0.2" stroke-miterlimit="10"/>
<path d="M45.7036 9.74994V5.24994H46.2819V9.74994H45.7036Z" stroke="white" strokeWidth="0.2" stroke-miterlimit="10"/>
<path d="M48.8462 9.74994H48.268V5.80269H47.011V5.24994H50.1032V5.80269H48.8462V9.74994Z" stroke="white" strokeWidth="0.2" stroke-miterlimit="10"/>
<path d="M55.9568 9.16868C55.5143 9.62318 54.9646 9.85043 54.3068 9.85043C53.6491 9.85043 53.0993 9.62318 52.6576 9.16868C52.2151 8.71418 51.9946 8.15768 51.9946 7.49993C51.9946 6.84218 52.2151 6.28568 52.6576 5.83118C53.0993 5.37668 53.6491 5.14868 54.3068 5.14868C54.9608 5.14868 55.5098 5.37743 55.9538 5.83418C56.3978 6.29093 56.6198 6.84593 56.6198 7.49993C56.6198 8.15768 56.3986 8.71418 55.9568 9.16868ZM53.0843 8.79143C53.4173 9.12893 53.8246 9.29693 54.3068 9.29693C54.7891 9.29693 55.1971 9.12818 55.5293 8.79143C55.8623 8.45393 56.0296 8.02343 56.0296 7.49993C56.0296 6.97643 55.8623 6.54593 55.5293 6.20843C55.1971 5.87093 54.7891 5.70293 54.3068 5.70293C53.8246 5.70293 53.4173 5.87168 53.0843 6.20843C52.7521 6.54593 52.5848 6.97643 52.5848 7.49993C52.5848 8.02343 52.7521 8.45393 53.0843 8.79143Z" stroke="white" strokeWidth="0.2" stroke-miterlimit="10"/>
<path d="M57.4313 9.74994V5.24994H58.1348L60.3218 8.75019H60.3466L60.3218 7.88319V5.24994H60.9001V9.74994H60.2963L58.0081 6.07944H57.9833L58.0081 6.94644V9.74994H57.4313Z" stroke="white" strokeWidth="0.2" stroke-miterlimit="10"/>
<g filter="url(#filter0_ii_381_271)">
<path d="M8.57699 5.65363C8.35874 5.88463 8.22974 6.24313 8.22974 6.70738V23.2944C8.22974 23.7594 8.35874 24.1171 8.57699 24.3481L8.63249 24.4021L17.9242 15.1104V15.0009V14.8914L8.63249 5.59888L8.57699 5.65363Z" fill="url(#paint0_linear_381_271)"/>
<path d="M21.0211 18.2085L17.9243 15.1102V15.0007V14.8912L21.0218 11.7937L21.0916 11.8335L24.7613 13.9185C25.8091 14.514 25.8091 15.4882 24.7613 16.0845L21.0916 18.1695L21.0211 18.2085Z" fill="url(#paint1_linear_381_271)"/>
<g filter="url(#filter1_i_381_271)">
<path d="M21.0914 18.1687L17.9234 15.0007L8.5769 24.348C8.9219 24.714 9.49265 24.759 10.1354 24.3945L21.0914 18.1687Z" fill="url(#paint2_linear_381_271)"/>
</g>
<path d="M21.0914 11.8328L10.1354 5.60777C9.49265 5.24252 8.9219 5.28827 8.5769 5.65427L17.9242 15.0015L21.0914 11.8328Z" fill="url(#paint3_linear_381_271)"/>
</g>
<rect x="1.25" y="0.5" width="100.25" height="29" rx="4.5" stroke="#A6A6A6"/>
<defs>
<filter id="filter0_ii_381_271" x="8.22974" y="5.35571" width="17.3174" height="19.2905" filterUnits="userSpaceOnUse" color-interpolation-filters="sRGB">
<feFlood flood-opacity="0" result="BackgroundImageFix"/>
<feBlend mode="normal" in="SourceGraphic" in2="BackgroundImageFix" result="shape"/>
<feColorMatrix in="SourceAlpha" type="matrix" values="0 0 0 0 0 0 0 0 0 0 0 0 0 0 0 0 0 0 127 0" result="hardAlpha"/>
<feOffset dy="-0.15"/>
<feComposite in2="hardAlpha" operator="arithmetic" k2="-1" k3="1"/>
<feColorMatrix type="matrix" values="0 0 0 0 0 0 0 0 0 0 0 0 0 0 0 0 0 0 0.12 0"/>
<feBlend mode="normal" in2="shape" result="effect1_innerShadow_381_271"/>
<feColorMatrix in="SourceAlpha" type="matrix" values="0 0 0 0 0 0 0 0 0 0 0 0 0 0 0 0 0 0 127 0" result="hardAlpha"/>
<feOffset dy="0.15"/>
<feComposite in2="hardAlpha" operator="arithmetic" k2="-1" k3="1"/>
<feColorMatrix type="matrix" values="0 0 0 0 1 0 0 0 0 1 0 0 0 0 1 0 0 0 0.25 0"/>
<feBlend mode="normal" in2="effect1_innerShadow_381_271" result="effect2_innerShadow_381_271"/>
</filter>
<filter id="filter1_i_381_271" x="8.5769" y="15.0007" width="12.5144" height="9.64551" filterUnits="userSpaceOnUse" color-interpolation-filters="sRGB">
<feFlood flood-opacity="0" result="BackgroundImageFix"/>
<feBlend mode="normal" in="SourceGraphic" in2="BackgroundImageFix" result="shape"/>
<feColorMatrix in="SourceAlpha" type="matrix" values="0 0 0 0 0 0 0 0 0 0 0 0 0 0 0 0 0 0 127 0" result="hardAlpha"/>
<feOffset dy="-0.15"/>
<feComposite in2="hardAlpha" operator="arithmetic" k2="-1" k3="1"/>
<feColorMatrix type="matrix" values="0 0 0 0 0 0 0 0 0 0 0 0 0 0 0 0 0 0 0.08 0"/>
<feBlend mode="normal" in2="shape" result="effect1_innerShadow_381_271"/>
</filter>
<linearGradient id="paint0_linear_381_271" x1="17.1006" y1="6.53188" x2="4.51409" y2="19.1184" gradientUnits="userSpaceOnUse">
<stop stop-color="#00A0FF"/>
<stop offset="0.0066" stop-color="#00A1FF"/>
<stop offset="0.2601" stop-color="#00BEFF"/>
<stop offset="0.5122" stop-color="#00D2FF"/>
<stop offset="0.7604" stop-color="#00DFFF"/>
<stop offset="1" stop-color="#00E3FF"/>
</linearGradient>
<linearGradient id="paint1_linear_381_271" x1="26.1252" y1="15.0007" x2="7.97827" y2="15.0007" gradientUnits="userSpaceOnUse">
<stop stop-color="#FFE000"/>
<stop offset="0.4087" stop-color="#FFBD00"/>
<stop offset="0.7754" stop-color="#FFA500"/>
<stop offset="1" stop-color="#FF9C00"/>
</linearGradient>
<linearGradient id="paint2_linear_381_271" x1="19.371" y1="16.7212" x2="2.30211" y2="33.79" gradientUnits="userSpaceOnUse">
<stop stop-color="#FF3A44"/>
<stop offset="1" stop-color="#C31162"/>
</linearGradient>
<linearGradient id="paint3_linear_381_271" x1="6.22295" y1="0.132619" x2="13.8447" y2="7.75435" gradientUnits="userSpaceOnUse">
<stop stop-color="#32A071"/>
<stop offset="0.0685" stop-color="#2DA771"/>
<stop offset="0.4762" stop-color="#15CF74"/>
<stop offset="0.8009" stop-color="#06E775"/>
<stop offset="1" stop-color="#00F076"/>
</linearGradient>
</defs>
</svg>
