<svg width="150" height="44" viewBox="0 0 150 44" fill="none" xmlns="http://www.w3.org/2000/svg">
<rect x="1.25" y="0.5" width="147.5" height="43" rx="4.5" fill="black"/>
<path d="M75.6996 23.9264C73.1124 23.9264 71.0037 25.8943 71.0037 28.6047C71.0037 31.2986 73.1124 33.283 75.6996 33.283C78.2879 33.283 80.3966 31.2986 80.3966 28.6047C80.3955 25.8943 78.2868 23.9264 75.6996 23.9264ZM75.6996 31.4416C74.2817 31.4416 73.0596 30.2723 73.0596 28.6058C73.0596 26.9217 74.2828 25.77 75.6996 25.77C77.1175 25.77 78.3396 26.9217 78.3396 28.6058C78.3396 30.2712 77.1175 31.4416 75.6996 31.4416ZM65.4542 23.9264C62.867 23.9264 60.7583 25.8943 60.7583 28.6047C60.7583 31.2986 62.867 33.283 65.4542 33.283C68.0425 33.283 70.1512 31.2986 70.1512 28.6047C70.1512 25.8943 68.0425 23.9264 65.4542 23.9264ZM65.4542 31.4416C64.0363 31.4416 62.8142 30.2723 62.8142 28.6058C62.8142 26.9217 64.0374 25.77 65.4542 25.77C66.8721 25.77 68.0942 26.9217 68.0942 28.6058C68.0953 30.2712 66.8721 31.4416 65.4542 31.4416ZM53.2684 25.363V27.3474H58.0182C57.8763 28.4639 57.5045 29.279 56.9369 29.8455C56.2461 30.5363 55.1648 31.2986 53.2684 31.2986C50.3446 31.2986 48.0588 28.9413 48.0588 26.0175C48.0588 23.0937 50.3446 20.7364 53.2684 20.7364C54.8458 20.7364 55.9975 21.3568 56.8478 22.1543L58.2481 20.754C57.0601 19.6199 55.4838 18.752 53.2684 18.752C49.2633 18.752 45.8962 22.0124 45.8962 26.0175C45.8962 30.0226 49.2633 33.283 53.2684 33.283C55.4299 33.283 57.0612 32.5735 58.3361 31.2447C59.6473 29.9335 60.0554 28.0899 60.0554 26.6016C60.0554 26.1418 60.0202 25.7161 59.9487 25.3619H53.2684V25.363ZM103.107 26.9041C102.718 25.8591 101.53 23.9264 99.1021 23.9264C96.692 23.9264 94.6889 25.8228 94.6889 28.6047C94.6889 31.2271 96.6744 33.283 99.332 33.283C101.476 33.283 102.717 31.9718 103.232 31.2095L101.637 30.1458C101.105 30.9257 100.378 31.4394 99.332 31.4394C98.287 31.4394 97.5423 30.9609 97.0638 30.0215L103.32 27.4343L103.107 26.9041ZM96.7272 28.4639C96.6744 26.6555 98.1275 25.7348 99.1736 25.7348C99.9887 25.7348 100.68 26.1429 100.911 26.727L96.7272 28.4639ZM91.6419 33.0003H93.6967V19.2492H91.6419V33.0003ZM88.2737 24.9725H88.2033C87.7424 24.4225 86.8558 23.9264 85.7404 23.9264C83.4007 23.9264 81.2568 25.9823 81.2568 28.6234C81.2568 31.2458 83.4007 33.2841 85.7404 33.2841C86.8569 33.2841 87.7424 32.788 88.2033 32.2215H88.2737V32.8947C88.2737 34.6844 87.3167 35.6414 85.7756 35.6414C84.5172 35.6414 83.7373 34.7383 83.4183 33.976L81.6286 34.7207C82.1423 35.9604 83.5063 37.485 85.7756 37.485C88.1857 37.485 90.224 36.0671 90.224 32.6109V24.2113H88.2748V24.9725H88.2737ZM85.9175 31.4416C84.4996 31.4416 83.3127 30.2536 83.3127 28.6234C83.3127 26.9745 84.4996 25.77 85.9175 25.77C87.3167 25.77 88.4156 26.9745 88.4156 28.6234C88.4156 30.2536 87.3167 31.4416 85.9175 31.4416ZM112.737 19.2492H107.819V33.0003H109.87V27.7907H112.736C115.01 27.7907 117.248 26.144 117.248 23.5205C117.248 20.897 115.011 19.2492 112.737 19.2492ZM112.789 25.8767H109.87V21.1632H112.789C114.324 21.1632 115.195 22.4337 115.195 23.5205C115.195 24.5853 114.324 25.8767 112.789 25.8767ZM125.475 23.9022C123.989 23.9022 122.45 24.5567 121.813 26.0076L123.634 26.7677C124.024 26.0076 124.75 25.759 125.51 25.759C126.571 25.759 127.65 26.3959 127.668 27.5278V27.6697C127.296 27.4574 126.5 27.1395 125.527 27.1395C123.564 27.1395 121.564 28.2186 121.564 30.2349C121.564 32.0752 123.175 33.2599 124.979 33.2599C126.358 33.2599 127.119 32.6406 127.597 31.9146H127.667V32.9761H129.649V27.7038C129.65 25.264 127.826 23.9022 125.475 23.9022ZM125.226 31.4383C124.555 31.4383 123.617 31.1017 123.617 30.2701C123.617 29.2086 124.785 28.8016 125.794 28.8016C126.695 28.8016 127.12 28.9963 127.668 29.2614C127.509 30.5363 126.412 31.4383 125.226 31.4383ZM136.867 24.2025L134.514 30.1645H134.444L132.002 24.2025H129.791L133.453 32.535L131.365 37.1704H133.506L139.15 24.2025H136.867ZM118.381 33.0003H120.432V19.2492H118.381V33.0003Z" fill="white"/>
<path d="M52.9099 11.2673C52.9099 12.1891 52.6371 12.9228 52.0904 13.4706C51.47 14.1218 50.6604 14.4474 49.666 14.4474C48.7134 14.4474 47.9027 14.1174 47.2372 13.4574C46.5706 12.7963 46.2373 11.9779 46.2373 11.0011C46.2373 10.0232 46.5706 9.20476 47.2372 8.54476C47.9027 7.88366 48.7134 7.55366 49.666 7.55366C50.139 7.55366 50.5911 7.64606 51.0201 7.82976C51.4502 8.01456 51.7945 8.25986 52.0519 8.56676L51.4722 9.14756C51.0355 8.62506 50.4338 8.36436 49.6649 8.36436C48.9697 8.36436 48.3691 8.60856 47.862 9.09696C47.3549 9.58536 47.1019 10.2201 47.1019 11C47.1019 11.7799 47.3549 12.4146 47.862 12.903C48.3691 13.3914 48.9697 13.6356 49.6649 13.6356C50.4019 13.6356 51.0168 13.3903 51.5085 12.8986C51.8275 12.5785 52.0123 12.133 52.0618 11.5621H49.6649V10.769H52.8626C52.8956 10.9417 52.9099 11.1078 52.9099 11.2673Z" fill="white"/>
<path d="M57.981 8.51072H54.9758V10.6029H57.6862V11.396H54.9758V13.4882H57.981V14.3H54.1277V7.70002H57.981V8.51072Z" fill="white"/>
<path d="M61.557 14.3H60.7089V8.51072H58.8653V7.70002H63.4006V8.51072H61.557V14.3Z" fill="white"/>
<path d="M66.6818 14.3V7.70002H67.5299V14.3H66.6818Z" fill="white"/>
<path d="M71.291 14.3H70.4429V8.51072H68.5993V7.70002H73.1346V8.51072H71.291V14.3Z" fill="white"/>
<path d="M81.7199 13.4475C81.0709 14.1141 80.2646 14.4474 79.2999 14.4474C78.3352 14.4474 77.5289 14.1141 76.881 13.4475C76.232 12.7809 75.9086 11.9647 75.9086 11C75.9086 10.0353 76.232 9.21911 76.881 8.55251C77.5289 7.88591 78.3352 7.55151 79.2999 7.55151C80.2591 7.55151 81.0643 7.88701 81.7155 8.55691C82.3667 9.22681 82.6923 10.0408 82.6923 11C82.6923 11.9647 82.3678 12.7809 81.7199 13.4475ZM77.5069 12.8942C77.9953 13.3892 78.5926 13.6356 79.2999 13.6356C80.0072 13.6356 80.6056 13.3881 81.0929 12.8942C81.5813 12.3992 81.8266 11.7678 81.8266 11C81.8266 10.2322 81.5813 9.60081 81.0929 9.10581C80.6056 8.61081 80.0072 8.36441 79.2999 8.36441C78.5926 8.36441 77.9953 8.61191 77.5069 9.10581C77.0196 9.60081 76.7743 10.2322 76.7743 11C76.7743 11.7678 77.0196 12.3992 77.5069 12.8942Z" fill="white"/>
<path d="M83.8825 14.3V7.70002H84.9143L88.1219 12.8337H88.1582L88.1219 11.5621V7.70002H88.97V14.3H88.0845L84.7284 8.91663H84.6921L84.7284 10.1882V14.3H83.8825Z" fill="white"/>
<path d="M52.9099 11.2673C52.9099 12.1891 52.6371 12.9228 52.0904 13.4706C51.47 14.1218 50.6604 14.4474 49.666 14.4474C48.7134 14.4474 47.9027 14.1174 47.2372 13.4574C46.5706 12.7963 46.2373 11.9779 46.2373 11.0011C46.2373 10.0232 46.5706 9.20476 47.2372 8.54476C47.9027 7.88366 48.7134 7.55366 49.666 7.55366C50.139 7.55366 50.5911 7.64606 51.0201 7.82976C51.4502 8.01456 51.7945 8.25986 52.0519 8.56676L51.4722 9.14756C51.0355 8.62506 50.4338 8.36436 49.6649 8.36436C48.9697 8.36436 48.3691 8.60856 47.862 9.09696C47.3549 9.58536 47.1019 10.2201 47.1019 11C47.1019 11.7799 47.3549 12.4146 47.862 12.903C48.3691 13.3914 48.9697 13.6356 49.6649 13.6356C50.4019 13.6356 51.0168 13.3903 51.5085 12.8986C51.8275 12.5785 52.0123 12.133 52.0618 11.5621H49.6649V10.769H52.8626C52.8956 10.9417 52.9099 11.1078 52.9099 11.2673Z" stroke="white" strokeWidth="0.2" stroke-miterlimit="10"/>
<path d="M57.981 8.51072H54.9758V10.6029H57.6862V11.396H54.9758V13.4882H57.981V14.3H54.1277V7.70002H57.981V8.51072Z" stroke="white" strokeWidth="0.2" stroke-miterlimit="10"/>
<path d="M61.557 14.3H60.7089V8.51072H58.8653V7.70002H63.4006V8.51072H61.557V14.3Z" stroke="white" strokeWidth="0.2" stroke-miterlimit="10"/>
<path d="M66.6818 14.3V7.70002H67.5299V14.3H66.6818Z" stroke="white" strokeWidth="0.2" stroke-miterlimit="10"/>
<path d="M71.291 14.3H70.4429V8.51072H68.5993V7.70002H73.1346V8.51072H71.291V14.3Z" stroke="white" strokeWidth="0.2" stroke-miterlimit="10"/>
<path d="M81.7199 13.4475C81.0709 14.1141 80.2646 14.4474 79.2999 14.4474C78.3352 14.4474 77.5289 14.1141 76.881 13.4475C76.232 12.7809 75.9086 11.9647 75.9086 11C75.9086 10.0353 76.232 9.21911 76.881 8.55251C77.5289 7.88591 78.3352 7.55151 79.2999 7.55151C80.2591 7.55151 81.0643 7.88701 81.7155 8.55691C82.3667 9.22681 82.6923 10.0408 82.6923 11C82.6923 11.9647 82.3678 12.7809 81.7199 13.4475ZM77.5069 12.8942C77.9953 13.3892 78.5926 13.6356 79.2999 13.6356C80.0072 13.6356 80.6056 13.3881 81.0929 12.8942C81.5813 12.3992 81.8266 11.7678 81.8266 11C81.8266 10.2322 81.5813 9.60081 81.0929 9.10581C80.6056 8.61081 80.0072 8.36441 79.2999 8.36441C78.5926 8.36441 77.9953 8.61191 77.5069 9.10581C77.0196 9.60081 76.7743 10.2322 76.7743 11C76.7743 11.7678 77.0196 12.3992 77.5069 12.8942Z" stroke="white" strokeWidth="0.2" stroke-miterlimit="10"/>
<path d="M83.8825 14.3V7.70002H84.9143L88.1219 12.8337H88.1582L88.1219 11.5621V7.70002H88.97V14.3H88.0845L84.7284 8.91663H84.6921L84.7284 10.1882V14.3H83.8825Z" stroke="white" strokeWidth="0.2" stroke-miterlimit="10"/>
<g filter="url(#filter0_ii_144_11808)">
<path d="M12.2295 8.29173C11.9094 8.63053 11.7202 9.15633 11.7202 9.83723V34.1648C11.7202 34.8468 11.9094 35.3715 12.2295 35.7103L12.3109 35.7895L25.9388 22.1616V22.001V21.8404L12.3109 8.21143L12.2295 8.29173Z" fill="url(#paint0_linear_144_11808)"/>
<path d="M30.4806 26.7057L25.9387 22.1616V22.001V21.8404L30.4817 17.2974L30.584 17.3557L35.9663 20.4137C37.503 21.2871 37.503 22.716 35.9663 23.5905L30.584 26.6485L30.4806 26.7057Z" fill="url(#paint1_linear_144_11808)"/>
<g filter="url(#filter1_i_144_11808)">
<path d="M30.5841 26.6474L25.9377 22.001L12.2295 35.7103C12.7355 36.2471 13.5726 36.3131 14.5153 35.7785L30.5841 26.6474Z" fill="url(#paint2_linear_144_11808)"/>
</g>
<path d="M30.5841 17.3547L14.5153 8.22466C13.5726 7.68896 12.7355 7.75606 12.2295 8.29286L25.9388 22.0022L30.5841 17.3547Z" fill="url(#paint3_linear_144_11808)"/>
</g>
<rect x="1.25" y="0.5" width="147.5" height="43" rx="4.5" stroke="#A6A6A6"/>
<defs>
<filter id="filter0_ii_144_11808" x="11.7202" y="7.85498" width="25.3987" height="28.2927" filterUnits="userSpaceOnUse" color-interpolation-filters="sRGB">
<feFlood flood-opacity="0" result="BackgroundImageFix"/>
<feBlend mode="normal" in="SourceGraphic" in2="BackgroundImageFix" result="shape"/>
<feColorMatrix in="SourceAlpha" type="matrix" values="0 0 0 0 0 0 0 0 0 0 0 0 0 0 0 0 0 0 127 0" result="hardAlpha"/>
<feOffset dy="-0.15"/>
<feComposite in2="hardAlpha" operator="arithmetic" k2="-1" k3="1"/>
<feColorMatrix type="matrix" values="0 0 0 0 0 0 0 0 0 0 0 0 0 0 0 0 0 0 0.12 0"/>
<feBlend mode="normal" in2="shape" result="effect1_innerShadow_144_11808"/>
<feColorMatrix in="SourceAlpha" type="matrix" values="0 0 0 0 0 0 0 0 0 0 0 0 0 0 0 0 0 0 127 0" result="hardAlpha"/>
<feOffset dy="0.15"/>
<feComposite in2="hardAlpha" operator="arithmetic" k2="-1" k3="1"/>
<feColorMatrix type="matrix" values="0 0 0 0 1 0 0 0 0 1 0 0 0 0 1 0 0 0 0.25 0"/>
<feBlend mode="normal" in2="effect1_innerShadow_144_11808" result="effect2_innerShadow_144_11808"/>
</filter>
<filter id="filter1_i_144_11808" x="12.2295" y="22.001" width="18.3545" height="14.1467" filterUnits="userSpaceOnUse" color-interpolation-filters="sRGB">
<feFlood flood-opacity="0" result="BackgroundImageFix"/>
<feBlend mode="normal" in="SourceGraphic" in2="BackgroundImageFix" result="shape"/>
<feColorMatrix in="SourceAlpha" type="matrix" values="0 0 0 0 0 0 0 0 0 0 0 0 0 0 0 0 0 0 127 0" result="hardAlpha"/>
<feOffset dy="-0.15"/>
<feComposite in2="hardAlpha" operator="arithmetic" k2="-1" k3="1"/>
<feColorMatrix type="matrix" values="0 0 0 0 0 0 0 0 0 0 0 0 0 0 0 0 0 0 0.08 0"/>
<feBlend mode="normal" in2="shape" result="effect1_innerShadow_144_11808"/>
</filter>
<linearGradient id="paint0_linear_144_11808" x1="24.7308" y1="9.57983" x2="6.2706" y2="28.04" gradientUnits="userSpaceOnUse">
<stop stop-color="#00A0FF"/>
<stop offset="0.0066" stop-color="#00A1FF"/>
<stop offset="0.2601" stop-color="#00BEFF"/>
<stop offset="0.5122" stop-color="#00D2FF"/>
<stop offset="0.7604" stop-color="#00DFFF"/>
<stop offset="1" stop-color="#00E3FF"/>
</linearGradient>
<linearGradient id="paint1_linear_144_11808" x1="37.9667" y1="22.001" x2="11.3512" y2="22.001" gradientUnits="userSpaceOnUse">
<stop stop-color="#FFE000"/>
<stop offset="0.4087" stop-color="#FFBD00"/>
<stop offset="0.7754" stop-color="#FFA500"/>
<stop offset="1" stop-color="#FF9C00"/>
</linearGradient>
<linearGradient id="paint2_linear_144_11808" x1="28.0608" y1="24.5243" x2="3.02646" y2="49.5586" gradientUnits="userSpaceOnUse">
<stop stop-color="#FF3A44"/>
<stop offset="1" stop-color="#C31162"/>
</linearGradient>
<linearGradient id="paint3_linear_144_11808" x1="8.77703" y1="0.194443" x2="19.9556" y2="11.373" gradientUnits="userSpaceOnUse">
<stop stop-color="#32A071"/>
<stop offset="0.0685" stop-color="#2DA771"/>
<stop offset="0.4762" stop-color="#15CF74"/>
<stop offset="0.8009" stop-color="#06E775"/>
<stop offset="1" stop-color="#00F076"/>
</linearGradient>
</defs>
</svg>
