<svg width="161" height="30" viewBox="0 0 161 30" fill="none" xmlns="http://www.w3.org/2000/svg">
<path fill-rule="evenodd" clip-rule="evenodd" d="M27.8185 13.3909V13.3478C27.8115 13.1728 27.8004 12.9975 27.7865 12.8222C27.772 12.6436 27.7542 12.4612 27.7326 12.2825C27.6898 11.9248 27.6325 11.5709 27.5647 11.2169C27.529 11.0419 27.4895 10.87 27.4501 10.6947C26.8709 8.26679 25.6482 6.04991 23.9387 4.26956C23.8173 4.14418 23.6922 4.0191 23.5672 3.89741C23.3133 3.65096 23.0487 3.41497 22.777 3.18946C22.7733 3.18608 22.7696 3.18238 22.7662 3.17868C22.6337 3.07147 22.4978 2.96426 22.3623 2.86044C22.2335 2.76063 22.1007 2.66389 21.9689 2.56747C21.8148 2.45656 21.654 2.34905 21.4932 2.24553C21.3429 2.14572 21.1892 2.05268 21.0354 1.95933C20.8854 1.8703 20.728 1.78065 20.5709 1.69501C20.4131 1.60906 20.2523 1.52341 20.0915 1.44455C19.9415 1.36938 19.7911 1.29791 19.6411 1.23013C19.6195 1.21935 19.5946 1.20856 19.5696 1.19778C19.4159 1.13001 19.2585 1.06192 19.0974 0.997535C18.9295 0.92976 18.7579 0.865373 18.5863 0.804683C18.0496 0.611522 17.4954 0.450401 16.927 0.32902V3.25755C17.1667 3.32563 17.4023 3.40049 17.6349 3.48275C21.9221 5.00955 24.9901 9.10721 24.9901 13.9165C24.9901 20.0308 20.0308 24.9901 13.9165 24.9901C7.79852 24.9901 2.84258 20.0308 2.84258 13.9165C2.84258 8.29791 7.02834 3.65773 12.4538 2.94177V8.9504L4.70672 19.2058H23.0126L17.0607 10.7896L15.1888 13.2101L17.3604 16.281H10.5819L15.3789 9.93069L15.3466 0.0714726C14.8743 0.0249538 14.399 0 13.9165 0C12.354 0 10.8558 0.257548 9.45379 0.73321C8.48491 1.06192 7.56593 1.49476 6.70425 2.01694C6.70425 2.01694 6.70055 2.01325 6.70055 2.01694C4.79113 3.18238 3.18238 4.79144 2.01633 6.70086C2.01263 6.70086 2.01633 6.70425 2.01633 6.70425C1.49445 7.56624 1.06192 8.48521 0.732902 9.4541C0.25724 10.8558 0 12.354 0 13.9165C0 15.4791 0.25724 16.9772 0.732902 18.3786C1.71966 21.2825 3.63986 23.7603 6.13555 25.4513H6.13925C6.32532 25.5733 6.51109 25.6947 6.70055 25.8127C6.89372 25.931 7.09027 26.045 7.28682 26.1488C7.48367 26.2563 7.68392 26.3561 7.88417 26.4566C7.98799 26.5065 8.08811 26.5567 8.19532 26.5995C8.39895 26.6922 8.60659 26.7782 8.81393 26.8638C10.3943 27.4861 12.1143 27.8296 13.9165 27.8296C15.4787 27.8296 16.9772 27.5718 18.3786 27.0964C18.8078 26.9498 19.2261 26.7856 19.6374 26.5995H19.6411C19.845 26.5065 20.045 26.4063 20.2452 26.3062H20.2489C20.7458 26.0487 21.2286 25.7628 21.6898 25.4513C21.6935 25.455 21.6935 25.4513 21.6935 25.4513C23.1701 24.4467 24.4467 23.1738 25.4513 21.6935C25.4513 21.6935 25.455 21.6935 25.4513 21.6898C25.6374 21.4147 25.8161 21.1322 25.9843 20.8426V20.8389C26.0952 20.6457 26.2021 20.4492 26.3059 20.2489C26.4097 20.0487 26.5099 19.845 26.5992 19.6374C26.6919 19.4338 26.7782 19.2264 26.8638 19.0191C27.4858 17.4384 27.829 15.7187 27.829 13.9165C27.829 13.7412 27.8256 13.5662 27.8185 13.3909Z" fill="#6DD09C"/>
<path fill-rule="evenodd" clip-rule="evenodd" d="M73.2118 7.84595L66.9044 24.3829L64.7706 30H60.8483L63.1077 24.3829H61.8523L56.0159 7.84595H60.1265L64.3942 21.1824L69.0695 7.84595H73.2118Z" fill="black"/>
<path fill-rule="evenodd" clip-rule="evenodd" d="M90.0939 13.5255C90.0939 8.88167 87.2069 6.15154 83.0646 6.15154H78.9229V20.8056H83.0646C87.2069 20.8056 90.0939 18.1072 90.0939 13.5255ZM94.173 13.463C94.173 20.0844 89.6231 24.3832 83.1906 24.3832H74.9062V2.57422H83.1906C89.6231 2.57422 94.173 6.84193 94.173 13.463Z" fill="black"/>
<path fill-rule="evenodd" clip-rule="evenodd" d="M122.445 7.84595L116.138 24.3829L114.004 30H110.082L112.341 24.3829H111.086L105.249 7.84595H109.36L113.628 21.1824L118.303 7.84595H122.445Z" fill="black"/>
<path fill-rule="evenodd" clip-rule="evenodd" d="M138.856 17.9186C138.856 21.8096 135.531 24.7594 130.792 24.7594C126.618 24.7594 123.449 22.7196 122.571 19.7698L126.242 18.3265C126.775 20.1152 128.438 21.3392 130.698 21.3392C133.145 21.3392 134.714 19.7698 134.714 17.6361C134.714 15.4085 132.957 14.0591 130.855 14.0591H127.528V11.3918L133.428 5.74335H123.638V2.57422H137.915V5.71193L132.235 11.3918C136.064 11.5172 138.856 14.2159 138.856 17.9186Z" fill="black"/>
<path fill-rule="evenodd" clip-rule="evenodd" d="M155.99 13.4943C155.99 8.72469 153.793 6.02598 150.467 6.02598C147.14 6.02598 144.944 8.69327 144.944 13.4943C144.944 18.2949 147.14 20.9625 150.467 20.9625C153.793 20.9625 155.99 18.2638 155.99 13.4943ZM140.865 13.4628C140.865 6.30818 144.63 2.229 150.467 2.229C156.335 2.229 160.069 6.3396 160.069 13.4628C160.069 20.4604 156.304 24.7595 150.467 24.7595C144.63 24.7595 140.865 20.4604 140.865 13.4628Z" fill="black"/>
<path fill-rule="evenodd" clip-rule="evenodd" d="M50.2995 2.57397L49.8201 2.6054L43.4326 18.8288L37.0453 2.6054L36.566 2.57397H31.634V24.383H35.3682V8.28531L41.7696 23.5983H43.4326H45.0958L51.4972 8.28531V24.383H55.2311V2.57397H50.2995Z" fill="black"/>
<path fill-rule="evenodd" clip-rule="evenodd" d="M104.573 7.84595H99.6149H97.6694C96.6645 7.84595 95.8496 8.6608 95.8496 9.66603V11.6968V24.3829H99.8348V14.9692V11.6968H104.573V7.84595Z" fill="black"/>
</svg>
