<svg width="166" height="181" viewBox="0 0 166 181" fill="none" xmlns="http://www.w3.org/2000/svg">
<g clip-path="url(#clip0_706_626)">
<path d="M116.57 11.838C138.453 20.6454 154.426 42.608 156.068 66.1478C156.564 73.2579 155.763 80.7042 152.144 86.8453C148.525 92.9865 141.639 97.5584 134.513 96.8938C128.957 96.3814 124.161 92.9465 119.677 89.6317L66.9923 50.6628C62.3804 47.2599 57.6885 43.7609 54.4457 39.109C51.7474 35.2417 48.841 28.0036 51.3071 23.3517C53.4369 19.3483 60.2506 16.3217 64.1179 14.3921C74.474 9.25066 85.9974 6.91506 97.5381 7.61839C104.066 8.00438 110.491 9.42878 116.57 11.838Z" fill="#62BC8C"/>
<path d="M54.3266 180.677H52.3249V174.631C51.4362 156.72 43.6776 149.234 39.1298 146.368C33.6532 142.909 32.2199 142.604 27.9764 141.684C26.7914 141.427 25.3181 141.107 23.5006 140.667C22.6999 140.467 21.8992 140.282 21.0585 140.09C17.521 139.407 14.0704 138.332 10.7698 136.888C6.00582 134.606 2.69902 130.955 1.69818 126.863C0.6573 122.628 2.40277 118.232 4.00413 114.373C4.22831 113.812 4.4525 113.252 4.66869 112.699C4.92112 112.034 5.01423 111.319 4.94053 110.611C4.86684 109.903 4.62841 109.223 4.24433 108.624C4.01911 108.298 3.77586 107.985 3.51571 107.687C3.09268 107.211 2.71973 106.694 2.40277 106.142C2.00322 105.393 1.78822 104.56 1.77569 103.712C1.76315 102.864 1.95344 102.025 2.33071 101.266C2.77325 100.45 3.41155 99.7562 4.18828 99.2478C3.64802 98.8349 3.20291 98.3106 2.88318 97.7105C1.92237 95.909 2.0825 94.0915 3.2675 93.0906C5.22916 91.4893 6.88656 89.944 7.38298 87.9663C7.55519 87.3428 7.55519 86.6842 7.38298 86.0607C5.31402 84.8119 3.46838 83.2261 1.92237 81.3687C0.0968265 78.9667 -0.47966 75.9482 0.43311 73.5782C1.34588 71.2082 3.45166 69.7429 5.1571 68.5499C6.56629 67.5731 8.02352 66.6443 9.43271 65.7475C13.356 63.2414 17.0632 60.8874 19.8415 57.3725C22.0594 54.5941 23.2684 51.2473 24.5495 47.7003C25.0619 46.2591 25.6064 44.7698 26.2069 43.3366C29.2334 36.1866 34.1095 30.0854 38.8175 24.1925C44.11 17.5869 54.0304 11.3817 56.9288 9.59615C71.8534 0.604565 83.9676 0.308315 97.1388 0.836761C112.272 1.43727 126.844 6.28136 138.165 14.4483C146.255 20.3586 152.913 28.0111 157.647 36.8401C162.382 45.6692 165.072 55.4493 165.52 65.4577C165.967 75.4662 164.16 85.4473 160.232 94.6636C156.304 103.88 150.355 112.096 142.825 118.704C137.187 123.522 131.927 128.766 127.092 134.389C117.3 145.551 115.082 162.629 121.695 175.929L119.894 176.825C112.928 162.821 115.266 144.798 125.579 133.076C130.474 127.385 135.801 122.08 141.512 117.207C148.816 110.798 154.586 102.829 158.396 93.8898C162.206 84.9507 163.958 75.2698 163.524 65.5623C163.09 55.8549 160.48 46.3691 155.887 37.806C151.294 29.2428 144.835 21.8212 136.988 16.0896C125.979 8.13892 111.799 3.43095 97.0587 2.83845C81.4936 2.22193 71.1728 3.35889 57.9617 11.3176C55.1193 13.023 45.4631 19.1002 40.3468 25.4495C35.7589 31.2384 30.9789 37.2195 28.0244 44.1213C27.4399 45.5065 26.9115 46.9637 26.4231 48.3809C25.15 51.9199 23.8289 55.587 21.4108 58.6295C18.4083 62.3927 14.3809 64.9629 10.4896 67.437C9.09643 68.3257 7.66322 69.2385 6.29406 70.1993C4.48453 71.4644 2.93122 72.6574 2.29869 74.3388C1.49801 76.4125 2.41078 78.7265 3.52372 80.2078C5.03154 81.9536 6.81699 83.4387 8.80818 84.6035C9.0019 84.7336 9.14583 84.9255 9.21653 85.1479C9.567 86.2206 9.60036 87.3716 9.31261 88.4627C8.61602 91.2331 6.26203 93.1947 4.50855 94.6359C4.02014 95.0443 4.2123 96.0291 4.61264 96.7737C4.83442 97.1771 5.14909 97.5219 5.53059 97.7794C5.9121 98.037 6.34946 98.2 6.80649 98.255C7.05545 98.2773 7.28704 98.392 7.45571 98.5765C7.62437 98.761 7.71791 99.0019 7.71791 99.2518C7.71791 99.5018 7.62437 99.7427 7.45571 99.9272C7.28704 100.112 7.05545 100.226 6.80649 100.249C6.23735 100.358 5.69747 100.586 5.22169 100.917C4.7459 101.248 4.34477 101.675 4.04416 102.17C3.81262 102.641 3.69624 103.161 3.7046 103.685C3.71295 104.21 3.84579 104.725 4.0922 105.189C4.36402 105.612 4.67788 106.006 5.02899 106.366C5.33943 106.725 5.62818 107.102 5.89372 107.495C6.4526 108.361 6.80028 109.346 6.90876 110.371C7.01723 111.396 6.88347 112.432 6.51825 113.396C6.30207 113.948 6.06987 114.517 5.84568 115.085C4.3244 118.864 2.76308 122.764 3.64382 126.375C4.52457 129.986 7.41501 133.052 11.6506 135.07C14.8179 136.443 18.1256 137.466 21.5149 138.121C22.3156 138.313 23.1643 138.497 23.981 138.697C25.7745 139.137 27.1837 139.442 28.4087 139.706C32.7884 140.659 34.4298 141.011 40.2107 144.654C45.4631 147.969 49.3464 153.245 51.7564 160.331C53.2631 164.928 54.1306 169.71 54.3346 174.543V180.661L54.3266 180.677Z" fill="#555555"/>
<path d="M48.7691 74.635C46.4498 74.6335 44.1564 74.1481 42.0354 73.2098C37.7207 71.163 34.3034 67.609 32.4273 63.2174C32.3503 62.979 32.3647 62.7204 32.4678 62.4921C32.5709 62.2638 32.7553 62.082 32.985 61.9821C33.2148 61.8822 33.4735 61.8713 33.7108 61.9517C33.9481 62.032 34.147 62.1978 34.2688 62.4167C35.938 66.3524 38.9916 69.5399 42.8521 71.3763C44.6746 72.1866 46.6444 72.6133 48.639 72.6299C50.6335 72.6464 52.6101 72.2524 54.4459 71.4723C54.5673 71.4198 54.6979 71.3916 54.8302 71.3895C54.9626 71.3874 55.094 71.4114 55.217 71.4601C55.3401 71.5088 55.4523 71.5813 55.5474 71.6734C55.6424 71.7654 55.7184 71.8753 55.771 71.9968C55.8236 72.1182 55.8517 72.2488 55.8538 72.3812C55.8559 72.5135 55.8319 72.6449 55.7832 72.768C55.7345 72.891 55.6621 73.0033 55.57 73.0983C55.4779 73.1934 55.368 73.2693 55.2465 73.3219C53.1981 74.1922 50.9947 74.6388 48.7691 74.635Z" fill="#555555"/>
<path d="M147.372 63.7858C146.638 62.712 145.751 61.7516 144.738 60.9354C146.086 59.8107 147.124 58.361 147.756 56.7233C148.388 55.0856 148.592 53.3139 148.349 51.5755C148.041 49.7467 147.331 48.0087 146.273 46.486C145.214 44.9634 143.831 43.6938 142.224 42.7681C139.672 41.3068 136.741 40.6431 133.809 40.8625C135.095 38.639 135.578 36.0414 135.178 33.5042C134.611 30.3195 133.02 27.407 130.646 25.2092C128.138 22.9554 125.178 21.2625 121.964 20.2436C118.75 19.2246 115.355 18.903 112.006 19.3003C108.595 19.7822 105.459 21.442 103.143 23.9922C102.823 23.8898 102.496 23.8069 102.166 23.744C102.201 21.9147 101.614 20.1278 100.501 18.6757C99.2462 17.0521 97.6318 15.7419 95.7847 14.8485C92.9082 13.3215 89.6549 12.6492 86.4088 12.9109C83.166 13.1837 80.158 14.7121 78.0257 17.1705C77.1246 18.2642 76.4682 19.5383 76.1008 20.907C75.7334 22.2757 75.6636 23.7072 75.8959 25.1052C73.2261 23.5788 70.0654 23.1564 67.0885 23.9282C65.435 24.3715 63.9145 25.2114 62.6588 26.375C61.4032 27.5386 60.4502 28.9908 59.8824 30.6058C59.3598 32.2467 59.2604 33.9931 59.5936 35.6827C59.9268 37.3723 60.6816 38.9503 61.788 40.27C61.9401 40.4541 62.1083 40.6303 62.2764 40.7984C60.8657 41.869 59.7532 43.2836 59.0452 44.9069C58.3373 46.5302 58.0577 48.308 58.233 50.0702C58.4994 51.9793 59.2561 53.7868 60.4292 55.3164C61.6024 56.8459 63.1519 58.0453 64.9266 58.7976L65.311 58.9417C66.9163 59.5844 68.7006 59.6214 70.3312 59.0458C70.0716 60.3526 70.0952 61.7 70.4005 62.9969C70.7057 64.2939 71.2855 65.5103 72.1007 66.5641C73.4643 68.2947 75.2913 69.6025 77.3691 70.3353C78.3249 70.6833 79.3199 70.9119 80.3317 71.0159C82.3253 71.2733 84.351 70.9538 86.1686 70.0951C86.884 69.7413 87.5425 69.2825 88.1222 68.734C88.1845 70.9273 88.8766 73.0564 90.1159 74.8672C91.4049 76.7081 93.2309 78.1063 95.3443 78.8705C96.1594 79.1676 97.0101 79.3561 97.8745 79.431C97.9086 79.4907 97.955 79.5426 98.0106 79.5831C100.22 81.3928 102.048 83.6222 103.391 86.1426C104.734 88.6631 105.564 91.4245 105.833 94.2675V94.5077C105.831 95.4814 106.082 96.439 106.562 97.2861C106.979 97.9044 107.586 98.3708 108.291 98.6152C109.062 98.9023 109.906 98.9276 110.693 98.6873C111.869 98.2415 112.846 97.3893 113.448 96.2852C113.624 96.005 113.792 95.7168 113.952 95.4365C114.208 94.9961 114.456 94.5798 114.753 94.2035C116.054 95.4053 117.588 96.3265 119.261 96.9098L119.741 97.0779C121.798 97.794 124.007 97.9569 126.146 97.5503C128.545 97.0404 130.652 95.6195 132.023 93.587C133.322 91.6083 133.801 89.2026 133.36 86.8773H133.473C134.655 86.5948 135.731 85.9768 136.57 85.0976C137.409 84.2183 137.977 83.1153 138.205 81.9211C140.232 82.2861 142.322 81.9291 144.114 80.9123C145.817 79.9057 147.205 78.4409 148.117 76.6847C149.167 74.6671 149.652 72.4033 149.521 70.1327C149.39 67.8621 148.647 65.6692 147.372 63.7858ZM112.094 95.4685C111.676 96.2653 110.99 96.889 110.157 97.23C109.746 97.3528 109.308 97.3464 108.901 97.2118C108.495 97.0772 108.139 96.8208 107.883 96.4774C107.558 95.8412 107.395 95.1341 107.411 94.4197V94.1714C106.877 88.4999 104.268 83.225 100.084 79.3589C101.749 79.1126 103.312 78.4085 104.6 77.3252C104.616 78.1195 104.748 78.9072 104.992 79.6632C105.529 81.1568 106.389 82.5138 107.51 83.6375C108.631 84.7612 109.986 85.6241 111.478 86.1647C111.662 86.2367 111.846 86.2928 112.038 86.3488C111.793 87.511 111.81 88.7131 112.087 89.868C112.364 91.023 112.894 92.1019 113.64 93.0265C113.243 93.5332 112.885 94.0684 112.567 94.6278C112.415 94.9321 112.263 95.2043 112.094 95.4685ZM146.716 75.9401C145.931 77.4557 144.732 78.7166 143.257 79.5751C141.772 80.4122 140.039 80.6959 138.365 80.3758H138.253C138.138 78.5273 137.342 76.7869 136.019 75.4917C136.691 74.7645 137.18 73.8878 137.446 72.9341C137.712 71.9803 137.747 70.977 137.548 70.007C137.5 69.8067 137.377 69.6325 137.204 69.5207C137.031 69.4088 136.822 69.368 136.619 69.4065C136.521 69.4237 136.426 69.4606 136.342 69.515C136.258 69.5695 136.186 69.6403 136.13 69.7232C136.074 69.8062 136.035 69.8996 136.016 69.9979C135.997 70.0962 135.998 70.1974 136.019 70.2953C136.215 71.2539 136.11 72.2498 135.717 73.146C135.324 74.0422 134.663 74.7946 133.825 75.2995C132.941 75.7806 131.938 75.9958 130.935 75.9191C129.931 75.8423 128.972 75.477 128.172 74.8672C128.011 74.7408 127.807 74.6811 127.603 74.7005C127.399 74.7199 127.21 74.8168 127.075 74.9712C127.012 75.0488 126.965 75.1384 126.937 75.2345C126.909 75.3307 126.901 75.4315 126.913 75.5309C126.925 75.6303 126.957 75.7263 127.007 75.8131C127.056 75.8999 127.123 75.9758 127.203 76.0361C127.744 76.4597 128.349 76.7923 128.997 77.021C129.915 77.362 130.896 77.5014 131.872 77.4295C132.849 77.3577 133.799 77.0763 134.658 76.6046L134.858 76.4765C135.535 77.1193 136.049 77.9146 136.357 78.7962C136.665 79.6777 136.757 80.6201 136.627 81.5448C136.453 82.4574 136.023 83.3015 135.386 83.9779C134.749 84.6544 133.933 85.1352 133.032 85.364C132.119 85.5616 131.168 85.4784 130.304 85.1255C129.439 84.7725 128.702 84.1662 128.188 83.3863C128.083 83.2096 127.913 83.0801 127.715 83.025C127.517 82.9698 127.305 82.9931 127.123 83.0901C127.035 83.1375 126.957 83.2024 126.895 83.2808C126.833 83.3592 126.787 83.4495 126.761 83.5462C126.734 83.6429 126.728 83.7439 126.742 83.8431C126.757 83.9422 126.791 84.0375 126.843 84.123C127.567 85.2753 128.663 86.1455 129.95 86.5891C130.529 86.7984 131.136 86.9251 131.751 86.9654C132.165 88.9554 131.773 91.0282 130.662 92.7302C129.506 94.43 127.74 95.6197 125.73 96.053C123.87 96.4019 121.951 96.2555 120.165 95.6287C118.114 95.01 116.288 93.8049 114.913 92.1618C114.294 91.4023 113.85 90.5154 113.613 89.5645C113.377 88.6136 113.353 87.6222 113.544 86.6611C114.775 86.8337 116.03 86.7074 117.203 86.2928C119.933 85.292 121.582 82.4976 120.958 79.9354C120.907 79.7347 120.78 79.5617 120.603 79.4527C120.427 79.3437 120.216 79.3072 120.013 79.3509C119.915 79.3698 119.822 79.4083 119.74 79.4642C119.657 79.5201 119.587 79.5921 119.533 79.6759C119.479 79.7597 119.443 79.8536 119.426 79.9519C119.41 80.0502 119.413 80.1508 119.437 80.2477C119.877 82.0652 118.636 84.139 116.618 84.8756C115.578 85.1911 114.481 85.2751 113.405 85.1215C112.329 84.968 111.3 84.5807 110.389 83.9869C108.567 82.9206 107.185 81.2401 106.49 79.2468C106.171 78.2984 106.077 77.2888 106.216 76.2979C106.355 75.3071 106.723 74.3622 107.29 73.538C107.35 73.4572 107.392 73.3653 107.415 73.2677C107.437 73.1702 107.44 73.0691 107.423 72.9704C107.406 72.8717 107.369 72.7776 107.315 72.6935C107.26 72.6094 107.189 72.5372 107.106 72.4811C106.94 72.3627 106.734 72.3125 106.532 72.3407C106.329 72.369 106.145 72.4737 106.017 72.6333C105.692 73.0733 105.423 73.552 105.217 74.0585L105.145 74.1706C104.494 75.3559 103.526 76.3366 102.35 77.0027C101.173 77.6688 99.8341 77.994 98.483 77.9417C97.0822 77.8763 95.7157 77.4873 94.4904 76.8052C93.2652 76.1231 92.2146 75.1665 91.421 74.0104C90.6523 72.8558 90.1242 71.5581 89.8684 70.1947C89.6125 68.8314 89.634 67.4305 89.9318 66.0757C89.9559 65.9676 89.9559 65.8555 89.9318 65.7475C89.9318 65.6994 89.9318 65.6594 89.9318 65.6113C89.9738 65.4122 89.9385 65.2045 89.8329 65.0305C89.7273 64.8565 89.5594 64.7292 89.3633 64.6746C89.1682 64.6284 88.963 64.6571 88.788 64.7549C88.6131 64.8528 88.4812 65.0126 88.4185 65.203C88.1909 65.9692 87.8044 66.6789 87.2844 67.2859C86.7643 67.8929 86.1222 68.3836 85.3999 68.726C83.8581 69.4602 82.1384 69.738 80.4437 69.5266C79.064 69.3955 77.7244 68.99 76.5035 68.3342C75.2826 67.6784 74.2049 66.7853 73.3337 65.7074C72.5071 64.6687 71.9695 63.4301 71.7755 62.1169C71.5815 60.8036 71.7379 59.4625 72.2288 58.2291V58.1571C72.7303 58.4842 73.2675 58.7529 73.8302 58.9577C75.6382 59.5575 77.5748 59.6571 79.4349 59.246C79.5398 59.2333 79.6408 59.1984 79.7312 59.1436C79.8215 59.0888 79.8992 59.0155 79.959 58.9284C80.0189 58.8413 80.0595 58.7425 80.0782 58.6385C80.0969 58.5345 80.0932 58.4277 80.0674 58.3252C80.0179 58.1247 79.8927 57.9511 79.7181 57.8406C79.5436 57.7302 79.3331 57.6915 79.1306 57.7327C77.566 58.0908 75.9337 58.0188 74.4066 57.5245C73.6858 57.2894 73.0231 56.9036 72.4627 56.3929C71.9022 55.8821 71.4568 55.258 71.1559 54.562C70.8895 53.9188 70.8234 53.2101 70.9662 52.5287C71.1091 51.8473 71.4543 51.2249 71.9566 50.7428C72.0345 50.6814 72.0991 50.6049 72.1467 50.5179C72.1944 50.4309 72.2239 50.3352 72.2336 50.2365C72.2433 50.1378 72.233 50.0382 72.2033 49.9436C72.1736 49.8489 72.1251 49.7613 72.0607 49.6859C71.9234 49.5315 71.7318 49.4362 71.5259 49.4198C71.32 49.4033 71.1157 49.4671 70.9557 49.5978C70.2065 50.2675 69.6806 51.1507 69.4486 52.1285C69.2167 53.1063 69.29 54.1316 69.6586 55.0664C69.9454 55.792 70.3695 56.4553 70.9077 57.0201C70.7355 57.0198 70.5686 57.0793 70.4353 57.1882C69.0902 58.3092 66.9283 57.9889 65.4871 57.4044C63.9693 56.7614 62.6441 55.736 61.6407 54.4282C60.6374 53.1203 59.9902 51.5747 59.7623 49.9421C59.6087 48.3872 59.8692 46.8192 60.5175 45.3975C61.1658 43.9758 62.1787 42.751 63.4534 41.8473C64.2939 42.4668 65.2187 42.9629 66.1997 43.3205C67.8138 43.9135 69.5501 44.0951 71.252 43.849C71.3508 43.8355 71.4459 43.8021 71.5314 43.7507C71.6169 43.6994 71.6911 43.6313 71.7495 43.5504C71.8079 43.4696 71.8493 43.3777 71.8711 43.2804C71.8929 43.183 71.8948 43.0823 71.8765 42.9842C71.8357 42.7829 71.719 42.6049 71.5506 42.4871C71.3822 42.3694 71.1749 42.3209 70.9717 42.3517C69.4913 42.543 67.9865 42.367 66.5901 41.8392C65.1937 41.3113 63.9487 40.4479 62.965 39.3252C62.0311 38.1981 61.3951 36.8547 61.1154 35.418C60.8356 33.9813 60.9209 32.4973 61.3636 31.1022C61.8542 29.7183 62.6751 28.4749 63.755 27.4801C64.835 26.4852 66.1414 25.7689 67.5609 25.3934C69.0349 25.0074 70.5773 24.9603 72.0722 25.2556C73.5671 25.551 74.9757 26.1812 76.1922 27.0988C76.3545 27.2243 76.5589 27.2826 76.763 27.2617C76.9671 27.2408 77.1554 27.1424 77.2891 26.9867C77.3765 26.8733 77.4293 26.7371 77.4412 26.5944C77.554 26.4984 77.6355 26.3709 77.6755 26.2283C77.7154 26.0857 77.7119 25.9344 77.6654 25.7937C77.2789 24.4784 77.2229 23.0881 77.5022 21.7459C77.7816 20.4037 78.3876 19.1512 79.2668 18.0992C81.1338 15.9411 83.7729 14.6014 86.617 14.3681C89.5478 14.129 92.4856 14.7376 95.0801 16.1216C96.7082 16.9037 98.1332 18.0519 99.2436 19.4764C100.15 20.6466 100.635 22.088 100.621 23.5679C100.119 23.5768 99.6201 23.6386 99.1315 23.752C98.0213 24.0132 96.9921 24.5424 96.1337 25.2934C95.2753 26.0443 94.6139 26.9941 94.2074 28.0597C94.1491 28.252 94.1654 28.4593 94.2529 28.6403C94.3404 28.8213 94.4928 28.9627 94.6798 29.0365C94.8693 29.1018 95.0765 29.0937 95.2604 29.0136C95.4442 28.9335 95.5913 28.7874 95.6726 28.6041C95.9965 27.7719 96.5165 27.0302 97.1884 26.442C97.8602 25.8537 98.6642 25.4363 99.5319 25.2253C100.427 25.0278 101.356 25.0377 102.247 25.2542C103.138 25.4706 103.967 25.888 104.672 26.4743C105.358 27.0611 105.894 27.8031 106.235 28.6387C106.576 29.4743 106.713 30.3793 106.634 31.2784C106.62 31.482 106.684 31.6832 106.814 31.8409C106.943 31.9987 107.128 32.101 107.33 32.1271C107.43 32.1429 107.531 32.1385 107.628 32.1141C107.726 32.0898 107.817 32.046 107.897 31.9854C107.977 31.9249 108.044 31.8487 108.094 31.7616C108.144 31.6745 108.175 31.5782 108.187 31.4785C108.29 30.3358 108.117 29.1851 107.682 28.1232C107.248 27.0614 106.564 26.1197 105.689 25.3774C105.362 25.0989 105.011 24.8497 104.64 24.6328C106.699 22.5407 109.389 21.1844 112.295 20.7735C115.395 20.4133 118.537 20.7144 121.512 21.657C124.488 22.5996 127.23 24.1624 129.557 26.2421C131.69 28.2043 133.122 30.8114 133.633 33.6644C133.851 34.9783 133.792 36.3236 133.458 37.6131C133.124 38.9027 132.524 40.1079 131.695 41.1507H131.647C130.481 40.0183 129.011 39.2495 127.416 38.9382C125.821 38.6268 124.169 38.7863 122.663 39.3972C122.572 39.4369 122.489 39.4946 122.421 39.5671C122.352 39.6396 122.299 39.7252 122.265 39.8188C122.23 39.9123 122.215 40.0119 122.221 40.1115C122.226 40.2111 122.251 40.3086 122.295 40.3981C122.385 40.5842 122.544 40.7281 122.738 40.7998C122.932 40.8714 123.146 40.8652 123.336 40.7824C124.585 40.2927 125.951 40.1835 127.261 40.4685C128.572 40.7534 129.769 41.4198 130.702 42.3837C131.576 43.3472 132.127 44.5587 132.281 45.85C132.434 47.1413 132.182 48.4484 131.559 49.5898C131.468 49.768 131.448 49.9736 131.501 50.1662C131.554 50.3588 131.678 50.5245 131.847 50.6307L131.983 50.6948C132.152 50.7521 132.334 50.7518 132.503 50.6938C132.671 50.6358 132.815 50.5235 132.912 50.3745C133.599 49.1668 133.945 47.7949 133.913 46.4056C133.88 45.0164 133.471 43.6622 132.728 42.4878C135.723 41.9871 138.799 42.5328 141.439 44.0331C142.843 44.8415 144.052 45.9494 144.979 47.2779C145.906 48.6064 146.529 50.123 146.804 51.7196C147.028 53.2731 146.833 54.8582 146.239 56.3109C145.645 57.7637 144.673 59.0313 143.425 59.9826C141.039 58.463 138.244 57.7138 135.418 57.8368C135.318 57.8397 135.219 57.863 135.128 57.9054C135.037 57.9478 134.956 58.0084 134.889 58.0834C134.822 58.1583 134.772 58.2462 134.74 58.3415C134.709 58.4367 134.697 58.5375 134.706 58.6375C134.725 58.8356 134.819 59.0193 134.967 59.1525C135.115 59.2858 135.307 59.3591 135.506 59.3581C137.555 59.2855 139.59 59.7256 141.426 60.6387C143.262 61.5517 144.841 62.9087 146.019 64.5865C147.138 66.2447 147.792 68.1719 147.915 70.1684C148.037 72.1648 147.623 74.1576 146.716 75.9401Z" fill="white"/>
<path d="M96.4656 40.4701C96.8248 41.3535 96.9238 42.3213 96.7507 43.2591C96.5776 44.1969 96.1397 45.0656 95.4887 45.7626C95.4196 45.8352 95.3658 45.9211 95.3307 46.0151C95.2955 46.109 95.2797 46.2091 95.2842 46.3093C95.2887 46.4095 95.3134 46.5077 95.3568 46.5982C95.4002 46.6886 95.4614 46.7693 95.5368 46.8355C95.6857 46.9774 95.8835 47.0566 96.0892 47.0566C96.295 47.0566 96.4928 46.9774 96.6417 46.8355C97.4994 45.9352 98.0764 44.8047 98.3025 43.582C98.5285 42.3592 98.3938 41.0971 97.9148 39.9497C97.3971 38.7805 96.5733 37.7729 95.5304 37.033C94.4876 36.2931 93.2643 35.8485 91.9898 35.7461C90.7337 35.6509 89.4762 35.9095 88.3596 36.4925C87.243 37.0756 86.3121 37.9598 85.6724 39.0449C85.5877 39.2269 85.5745 39.434 85.6353 39.6253C85.6961 39.8166 85.8265 39.9781 86.0007 40.0778C86.1805 40.173 86.3899 40.1962 86.5862 40.1427C86.7825 40.0892 86.9511 39.9629 87.0576 39.7895C87.5489 38.9658 88.2563 38.2922 89.1032 37.8419C89.95 37.3917 90.904 37.1819 91.8617 37.2354C92.8482 37.3135 93.7958 37.6549 94.6055 38.2238C95.4153 38.7927 96.0576 39.5685 96.4656 40.4701Z" fill="white"/>
<path d="M121.703 58.117C121.507 58.0765 121.303 58.1107 121.131 58.2129C120.959 58.3152 120.832 58.478 120.774 58.6695C120.74 58.8683 120.781 59.0727 120.891 59.242C121.001 59.4112 121.171 59.5327 121.366 59.5822C122.644 59.8921 123.823 60.5189 124.794 61.4048C125.765 62.2906 126.497 63.4069 126.923 64.6505C127.29 65.868 127.303 67.1646 126.962 68.3894C126.62 69.6141 125.938 70.7166 124.994 71.5684C123.991 72.3998 122.771 72.9268 121.479 73.0871C120.186 73.2474 118.875 73.0344 117.699 72.4731C117.516 72.3867 117.306 72.3734 117.113 72.4358C116.919 72.4983 116.757 72.6318 116.659 72.8094C116.582 72.9943 116.577 73.2012 116.645 73.3894C116.713 73.5776 116.849 73.7335 117.027 73.8263C117.275 73.9464 117.531 74.0505 117.827 74.1465C119.199 74.6368 120.673 74.7647 122.108 74.5178C123.543 74.271 124.89 73.6577 126.018 72.7373C127.188 71.7054 128.036 70.359 128.462 68.8585C128.888 67.358 128.874 65.7667 128.42 64.2742C127.921 62.7587 127.042 61.3967 125.865 60.3186C124.689 59.2405 123.256 58.4824 121.703 58.117Z" fill="white"/>
<path d="M116.514 65.9076C115.579 66.3097 114.566 66.4995 113.548 66.4635C112.531 66.4275 111.534 66.1666 110.629 65.6995C109.738 65.2257 108.965 64.5571 108.367 63.7434C107.77 62.9297 107.363 61.9918 107.178 60.9995C107.044 60.1559 107.086 59.2937 107.301 58.4669C107.516 57.6402 107.899 56.8669 108.427 56.1954C109.215 56.9208 110.137 57.4839 111.142 57.8528C111.729 58.064 112.339 58.2037 112.959 58.2692C115.177 58.5094 117.939 57.5165 118.676 55.2106C118.696 55.0279 118.653 54.8438 118.554 54.6892C118.454 54.5346 118.304 54.4189 118.13 54.3616C117.955 54.3044 117.766 54.3089 117.594 54.3746C117.423 54.4402 117.279 54.563 117.187 54.7222C116.706 56.2275 114.721 56.9401 113.087 56.7639C112.113 56.6547 111.177 56.321 110.353 55.7889C109.529 55.2568 108.84 54.5408 108.339 53.6973C107.865 52.8683 107.601 51.9362 107.569 50.9818C107.537 50.0274 107.738 49.0797 108.155 48.2207C108.235 48.0358 108.242 47.8277 108.175 47.6378C108.109 47.4479 107.973 47.2901 107.795 47.1958C107.611 47.1064 107.4 47.0905 107.205 47.1516C107.01 47.2126 106.846 47.3459 106.746 47.5241C106.214 48.6021 105.957 49.7948 105.998 50.9961C106.038 52.1975 106.375 53.3701 106.978 54.4099C107.098 54.6181 107.234 54.8183 107.371 55.0184C106.182 56.4173 105.531 58.1948 105.537 60.0307C104.525 60.8361 103.289 61.3072 101.998 61.3789C100.707 61.4507 99.4253 61.1194 98.3309 60.431C97.2355 59.6974 96.4152 58.6204 95.9991 57.3694C95.5831 56.1184 95.595 54.7646 96.0329 53.5212C96.0613 53.3408 96.0272 53.1562 95.9363 52.9979C95.8453 52.8396 95.703 52.7171 95.533 52.6508C95.3629 52.5844 95.1753 52.5782 95.0011 52.6331C94.827 52.688 94.6769 52.8008 94.5757 52.9527C94.1982 53.9253 94.0555 54.9732 94.1593 56.0113C93.2229 57.0475 91.9651 57.7384 90.5883 57.9729C89.1755 58.2006 87.727 57.9587 86.4648 57.2843C85.7933 56.9767 85.2617 56.428 84.9756 55.747C84.9176 55.5488 84.7853 55.3807 84.6062 55.2777C84.4272 55.1748 84.2153 55.145 84.0148 55.1946C83.9172 55.2168 83.8251 55.2588 83.7442 55.3178C83.6634 55.3768 83.5954 55.4517 83.5444 55.5378C83.4935 55.624 83.4606 55.7197 83.4479 55.819C83.4351 55.9183 83.4428 56.0191 83.4703 56.1154C83.6651 56.6594 83.9655 57.1595 84.3544 57.5868C84.7433 58.0142 85.2129 58.3604 85.7362 58.6055C86.0825 58.7899 86.4409 58.9504 86.8091 59.0859C88.1151 59.5611 89.5217 59.6908 90.8926 59.4622C92.2338 59.2421 93.4917 58.6671 94.5357 57.7968C95.071 59.3787 96.112 60.7405 97.4982 61.6721C97.9633 61.9713 98.4601 62.2184 98.9794 62.4087C100.086 62.8059 101.267 62.9544 102.438 62.8437C103.608 62.733 104.74 62.3658 105.753 61.7681C106.046 62.8852 106.567 63.9294 107.283 64.8348C108 65.7403 108.897 66.4872 109.917 67.0286C110.242 67.2009 110.579 67.3507 110.926 67.477C112.965 68.2196 115.211 68.1537 117.203 67.2928C117.294 67.2517 117.376 67.1925 117.443 67.1188C117.511 67.0451 117.563 66.9584 117.596 66.8641C117.629 66.7697 117.642 66.6696 117.635 66.5698C117.628 66.4701 117.601 66.3728 117.555 66.284C117.463 66.0993 117.304 65.9571 117.11 65.887C116.916 65.8169 116.703 65.8243 116.514 65.9076Z" fill="white"/>
<path d="M105.857 39.6694C105.983 39.8337 106.168 39.943 106.372 39.9744C106.576 40.0057 106.785 39.9567 106.954 39.8376C108.227 39.0105 109.731 38.6139 111.246 38.7062C112.761 38.7984 114.207 39.3746 115.369 40.35C116.468 41.3567 117.193 42.7054 117.427 44.1767C117.661 45.6479 117.39 47.1551 116.659 48.4528C116.556 48.6278 116.524 48.835 116.569 49.0326C116.614 49.2302 116.731 49.4036 116.899 49.5177L117.043 49.5898C117.21 49.648 117.392 49.6489 117.561 49.5923C117.729 49.5358 117.873 49.4251 117.972 49.2775C118.9 47.6806 119.248 45.8118 118.956 43.9877C118.664 42.1636 117.751 40.4966 116.37 39.2691C114.941 38.0441 113.151 37.3195 111.272 37.2053C109.393 37.0911 107.528 37.5937 105.961 38.6366C105.811 38.7601 105.716 38.9381 105.697 39.1315C105.677 39.325 105.735 39.5184 105.857 39.6694Z" fill="white"/>
<path d="M18.7438 47.2359L17.5508 46.8596C17.7029 46.3711 17.863 45.8907 18.0312 45.4103L19.2162 45.8187C19.0561 46.3151 18.8959 46.7635 18.7438 47.2359ZM19.7126 44.4175L18.5356 43.9771L19.0801 42.5599L20.2491 43.0243C20.0649 43.4887 19.8888 43.9531 19.7126 44.4175ZM20.8175 41.6472L19.6646 41.1587C19.8567 40.6943 20.0649 40.23 20.2731 39.7656L21.418 40.278C21.2099 40.737 21.0097 41.1934 20.8175 41.6472ZM22.0426 38.9329L20.9136 38.3884C21.1298 37.932 21.362 37.4756 21.5862 37.0272L22.7071 37.5957C22.4829 38.0361 22.2588 38.4845 22.0426 38.9329ZM23.3957 36.2746L22.2988 35.6821C22.531 35.2417 22.7792 34.7934 23.0274 34.353L24.1243 34.9695C23.8761 35.4019 23.6359 35.8422 23.3957 36.2746ZM24.877 33.6884L23.7961 33.0399C24.0603 32.6075 24.3245 32.1751 24.5967 31.7428L25.6536 32.4153C25.3894 32.8317 25.1252 33.2641 24.877 33.6884ZM26.4783 31.1663L25.4374 30.4697C25.7177 30.0453 26.0059 29.629 26.2942 29.2126L27.319 29.9333C27.0228 30.3016 26.7425 30.7499 26.4623 31.1663H26.4783ZM28.1678 28.7002L27.1589 27.9636C27.4551 27.5552 27.7594 27.1629 28.0717 26.7466L29.0645 27.5472C28.7603 27.8995 28.464 28.3239 28.1678 28.7002ZM29.9853 26.2982L29.0085 25.4975C29.3207 25.0972 29.649 24.6968 29.9693 24.3205L30.9301 25.1212C30.6098 25.5776 30.2976 25.9699 29.9853 26.3542V26.2982ZM31.9069 24.0163L30.9621 23.2156L31.979 22.0866L32.8997 22.9433C32.5635 23.3277 32.2272 23.704 31.9069 24.0723V24.0163ZM33.9246 21.8224L33.0279 20.9497C33.3721 20.5894 33.7325 20.2291 34.0928 19.8687L34.9735 20.7655C34.6212 21.1658 34.2689 21.4941 33.9246 21.8784V21.8224ZM36.0304 19.7807L35.1657 18.8759C35.534 18.5316 35.9103 18.1793 36.2866 17.843L37.0873 18.7718L36.0304 19.7807ZM38.2483 17.787L37.4476 16.8422L38.6086 15.8894L39.4092 16.8662C39.0249 17.1384 38.6406 17.4907 38.2643 17.787H38.2483ZM40.5622 15.8894L39.7615 14.9046C40.1619 14.5923 40.5622 14.28 40.9706 13.9838L41.7152 14.9846L40.5622 15.8894ZM42.9643 14.1119L42.2356 13.087L43.4927 12.2223L44.1893 13.2632C43.7729 13.5514 43.3566 13.8317 42.9562 14.1199L42.9643 14.1119Z" fill="#555555"/>
<path d="M110.886 161.789C110.798 161.284 110.717 160.772 110.653 160.267L111.894 160.107C111.958 160.596 112.031 161.084 112.119 161.564L110.886 161.789ZM110.501 158.738C110.501 158.226 110.445 157.713 110.429 157.201H111.686C111.686 157.689 111.686 158.186 111.75 158.666L110.501 158.738ZM111.694 155.703L110.445 155.663C110.445 155.159 110.485 154.639 110.525 154.126L111.782 154.23C111.742 154.719 111.71 155.207 111.694 155.703ZM111.934 152.765L110.685 152.605C110.749 152.1 110.83 151.588 110.918 151.084L112.151 151.3C112.071 151.769 111.999 152.271 111.934 152.805V152.765ZM112.439 149.851L111.214 149.602C111.326 149.106 111.446 148.601 111.574 148.113L112.783 148.433C112.663 148.89 112.543 149.37 112.439 149.851ZM113.192 146.992L111.991 146.624C112.143 146.143 112.303 145.647 112.471 145.175L113.696 145.599C113.496 146.047 113.336 146.52 113.192 146.992ZM114.168 144.198L113.007 143.741C113.192 143.269 113.384 142.797 113.592 142.324L114.737 142.829C114.545 143.285 114.353 143.741 114.168 144.198ZM115.361 141.483L114.224 140.939C114.449 140.483 114.673 140.026 114.913 139.57L116.026 140.154C115.794 140.595 115.57 141.043 115.361 141.483ZM116.731 138.849L115.642 138.233C115.89 137.8 116.154 137.352 116.442 136.92L117.507 137.568C117.227 137.993 116.979 138.393 116.731 138.849ZM118.276 136.311L117.227 135.631C117.499 135.206 117.779 134.782 118.068 134.365L119.101 135.078C118.82 135.486 118.54 135.903 118.276 136.311ZM119.965 133.861L118.948 133.124L119.861 131.907L120.854 132.668C120.55 133.068 120.253 133.469 119.965 133.861ZM121.775 131.459L120.798 130.658C121.11 130.266 121.438 129.858 121.759 129.489L122.72 130.29L121.775 131.459ZM123.688 129.177L122.744 128.376L123.752 127.239L124.681 128.04L123.688 129.177ZM125.698 126.959L124.785 126.102C125.13 125.734 125.474 125.366 125.826 125.006L126.731 125.878C126.379 126.263 126.034 126.631 125.706 126.991L125.698 126.959ZM127.772 124.805L126.883 123.925L127.956 122.852L128.837 123.748L127.772 124.805ZM129.91 122.708L129.045 121.803L129.309 121.547L130.11 120.746L130.975 121.659L130.174 122.459L129.91 122.708ZM132.095 120.65L131.239 119.729L132.352 118.704L133.2 119.633C132.824 119.977 132.456 120.338 132.111 120.682L132.095 120.65ZM134.305 118.616L133.465 117.687L134.578 116.679L135.378 117.607L134.305 118.616ZM136.539 116.606L135.699 115.67L136.819 114.669L137.66 115.598L136.539 116.606ZM138.781 114.589L137.94 113.66L139.053 112.651L139.894 113.58L138.781 114.589ZM141.015 112.563L140.166 111.642L141.271 110.625L142.12 111.546L141.015 112.563ZM143.225 110.521L142.368 109.601C142.736 109.264 143.097 108.92 143.457 108.576L144.322 109.48L143.225 110.521ZM145.411 108.432L144.538 107.535L145.603 106.478L146.492 107.367L145.411 108.432Z" fill="#555555"/>
<path d="M46.9834 168.522L46.6231 167.065L47.8401 166.761L48.2004 168.226L46.9834 168.522ZM46.2467 165.616C46.1106 165.111 45.9745 164.639 45.8384 164.183L47.0394 163.83C47.1835 164.295 47.3117 164.775 47.4558 165.288L46.2467 165.616ZM45.398 162.765C45.2379 162.285 45.0698 161.813 44.9096 161.364L46.0866 160.932C46.2521 161.396 46.4202 161.877 46.591 162.373L45.398 162.765ZM44.3652 160.011C44.173 159.555 43.9648 159.098 43.7566 158.666L44.8856 158.122C45.1018 158.578 45.318 159.042 45.5181 159.523L44.3652 160.011ZM43.0761 157.361C42.8359 156.929 42.5877 156.504 42.3314 156.104L43.3883 155.431C43.6526 155.848 43.9248 156.296 44.189 156.752L43.0761 157.361ZM41.4747 154.903C41.1785 154.51 40.8742 154.102 40.5619 153.774L41.5067 152.973C41.843 153.35 42.1713 153.774 42.4836 154.182L41.4747 154.903ZM39.5611 152.717C39.2168 152.389 38.8565 152.06 38.4722 151.748L39.2729 150.779C39.6732 151.116 40.0735 151.46 40.4338 151.812L39.5611 152.717ZM37.3112 150.875C36.9269 150.603 36.5105 150.331 36.0862 150.075L36.7347 149.002C37.1831 149.274 37.6235 149.554 38.0318 149.843L37.3112 150.875ZM34.8131 149.354C34.3887 149.138 33.9403 148.914 33.484 148.706L34.0124 147.569C34.4928 147.785 34.9572 148.017 35.3896 148.249L34.8131 149.354ZM32.1308 148.113C31.6985 147.929 31.2341 147.753 30.7537 147.569L31.2261 146.4C31.7225 146.584 32.2029 146.776 32.6513 146.96L32.1308 148.113ZM29.3445 147.072C28.8801 146.904 28.4077 146.752 27.9353 146.6L28.3196 145.407L29.7528 145.879L29.3445 147.072ZM26.5021 146.151L25.0688 145.711L25.4292 144.51L26.8704 144.95L26.5021 146.151Z" fill="#555555"/>
</g>
<defs>
<clipPath id="clip0_706_626">
<rect width="165.732" height="180" fill="white" transform="translate(0 0.676514)"/>
</clipPath>
</defs>
</svg>
