<svg width="24" height="25" viewBox="0 0 24 25" fill="none" xmlns="http://www.w3.org/2000/svg">
<path d="M21.2836 8.45138L15.3328 7.58653L12.6726 2.19356C12.6 2.04591 12.4805 1.92638 12.3328 1.85372C11.9625 1.67091 11.5125 1.82325 11.3273 2.19356L8.66717 7.58653L2.71639 8.45138C2.55233 8.47481 2.40233 8.55216 2.28748 8.66934C2.14864 8.81205 2.07214 9.00403 2.07477 9.20311C2.07741 9.4022 2.15897 9.59209 2.30155 9.73106L6.60701 13.9287L5.58983 19.8561C5.56597 19.9939 5.58123 20.1358 5.63387 20.2654C5.68651 20.3951 5.77442 20.5074 5.88764 20.5896C6.00086 20.6718 6.13486 20.7207 6.27444 20.7306C6.41401 20.7406 6.55358 20.7112 6.67733 20.6459L12 17.8475L17.3226 20.6459C17.468 20.7233 17.6367 20.749 17.7984 20.7209C18.2062 20.6506 18.4805 20.2639 18.4101 19.8561L17.393 13.9287L21.6984 9.73106C21.8156 9.61622 21.893 9.46622 21.9164 9.30216C21.9797 8.892 21.6937 8.51231 21.2836 8.45138Z" fill="#6DD19C"/>
</svg>
