<svg width="20" height="20" viewBox="0 0 20 20" fill="none" xmlns="http://www.w3.org/2000/svg">
<path d="M19.9921 9.62388V9.5928C19.987 9.46634 19.979 9.34061 19.9689 9.21487C19.9588 9.08625 19.9458 8.95545 19.9306 8.82682C19.8996 8.56957 19.8584 8.31521 19.8092 8.06084C19.7839 7.93511 19.7558 7.81154 19.7276 7.6858C19.3113 5.9414 18.4326 4.34801 17.2042 3.06825C17.1167 2.97792 17.0264 2.88832 16.9368 2.80088C16.754 2.62384 16.5639 2.45402 16.3688 2.29216L16.3609 2.28421C16.2662 2.20761 16.1687 2.13029 16.0704 2.05586C15.9779 1.9836 15.8832 1.91422 15.7878 1.84485C15.6773 1.76536 15.5617 1.68804 15.446 1.61361C15.3384 1.54207 15.2278 1.47487 15.1172 1.40839C15.0096 1.34408 14.8961 1.27976 14.7834 1.21834C14.6699 1.15619 14.5543 1.09477 14.4387 1.03841C14.331 0.984211 14.2234 0.932905 14.115 0.883766C14.0998 0.87654 14.0817 0.868591 14.0637 0.860642C13.9531 0.812227 13.8404 0.763089 13.7248 0.716841C13.6041 0.668425 13.4805 0.622177 13.3569 0.578097C12.9718 0.439354 12.5736 0.323734 12.1646 0.236297V2.34129C12.3373 2.38971 12.5064 2.44391 12.6733 2.50316C15.7546 3.6001 17.9593 6.54478 17.9593 10.0011C17.9593 14.3953 14.3953 17.9593 10.0011 17.9593C5.60465 17.9593 2.04285 14.3953 2.04285 10.0011C2.04285 5.96307 5.05113 2.6289 8.95039 2.11439V6.43278L3.38259 13.8028H16.5386L12.2607 7.75373L10.9152 9.4938L12.4761 11.7007H7.60487L11.0525 7.13661L11.0294 0.0513061C10.6897 0.0180654 10.3479 0 10.0011 0C8.87813 0 7.80142 0.184991 6.79409 0.526791C6.09748 0.763089 5.43773 1.07382 4.81844 1.44958C4.81844 1.44958 4.81555 1.44669 4.81555 1.44958C3.44329 2.2871 2.2871 3.44329 1.44958 4.81555C1.44669 4.81555 1.44958 4.81844 1.44958 4.81844C1.07454 5.43701 0.763089 6.0982 0.526791 6.79409C0.184991 7.80142 0 8.87813 0 10.0011C0 11.124 0.184991 12.2007 0.526791 13.2081C1.23641 15.2943 2.61589 17.0756 4.40944 18.291H4.41233C4.54601 18.3784 4.6797 18.4659 4.81555 18.5504C4.95429 18.635 5.09593 18.7173 5.23684 18.7918C5.37847 18.8691 5.52227 18.9406 5.66608 19.0129C5.74051 19.049 5.81277 19.0852 5.88937 19.1155C6.03606 19.1827 6.18564 19.2441 6.3345 19.3063C7.46974 19.7529 8.70615 20 10.0011 20C11.124 20 12.2007 19.815 13.2081 19.4732C13.5166 19.3677 13.8172 19.2492 14.1128 19.1155H14.115C14.2617 19.049 14.4055 18.9768 14.5493 18.9052H14.5522C14.9091 18.7202 15.256 18.5143 15.5877 18.291C15.5906 18.2932 15.5906 18.291 15.5906 18.291C16.6514 17.5691 17.5691 16.6543 18.291 15.5906C18.291 15.5906 18.2939 15.5906 18.291 15.5877C18.4247 15.3897 18.5533 15.1866 18.674 14.9785V14.9763C18.7535 14.8376 18.8308 14.696 18.9052 14.5522C18.9797 14.4084 19.0512 14.2617 19.1155 14.1128C19.1827 13.9661 19.2441 13.8172 19.3056 13.6684C19.7529 12.5324 20 11.296 20 10.0011C20 9.87535 19.9971 9.74961 19.9921 9.62388Z" fill="#6DD19D"/>
</svg>
