<svg width="28" height="22" viewBox="0 0 28 22" fill="none" xmlns="http://www.w3.org/2000/svg">
<path d="M26.5 4.44687L22.5 6.75V2C22.5 0.896875 21.6031 0 20.5 0H2C0.896875 0 0 0.896875 0 2V20C0 21.1031 0.896875 22 2 22H20.5C21.6031 22 22.5 21.1031 22.5 20V15.25L26.5 17.5531C27.1656 17.9375 28 17.4562 28 16.6906V5.3125C28 4.54375 27.1656 4.0625 26.5 4.44687ZM8.25 6C8.25 6.1375 8.1375 6.25 8 6.25H4.5C4.3625 6.25 4.25 6.1375 4.25 6V4.5C4.25 4.3625 4.3625 4.25 4.5 4.25H8C8.1375 4.25 8.25 4.3625 8.25 4.5V6ZM25.75 14.5312L22.5 12.6625V9.34062L25.75 7.46875V14.5312Z" fill="#4C926D"/>
</svg>
